<mxfile host="app.diagrams.net" agent="Mozilla/5.0 (Windows NT 10.0; Win64; x64) AppleWebKit/537.36 (KHTML, like Gecko) Chrome/129.0.0.0 Safari/537.36" version="24.7.17">
  <diagram name="Page-1" id="DNwVF8AsLOosIqLmRoMh">
    <mxGraphModel dx="4200" dy="2372" grid="0" gridSize="3" guides="0" tooltips="1" connect="1" arrows="1" fold="1" page="0" pageScale="1" pageWidth="850" pageHeight="1100" background="#ffffff" math="0" shadow="1">
      <root>
        <mxCell id="0" />
        <mxCell id="1" parent="0" />
        <mxCell id="gBbXwUMIxRK3NuY3_ltT-3" value="" style="ellipse;whiteSpace=wrap;html=1;strokeColor=#4C801A;strokeWidth=2;fontFamily=Times New Roman;" vertex="1" parent="1">
          <mxGeometry x="2479" y="524" width="71" height="40" as="geometry" />
        </mxCell>
        <mxCell id="gBbXwUMIxRK3NuY3_ltT-2" value="" style="ellipse;whiteSpace=wrap;html=1;strokeColor=#4C801A;strokeWidth=2;fontFamily=Times New Roman;" vertex="1" parent="1">
          <mxGeometry x="1230" y="105" width="72" height="38" as="geometry" />
        </mxCell>
        <mxCell id="gBbXwUMIxRK3NuY3_ltT-1" value="" style="ellipse;whiteSpace=wrap;html=1;strokeColor=#4C801A;strokeWidth=2;fontFamily=Times New Roman;" vertex="1" parent="1">
          <mxGeometry x="1280" y="589" width="86" height="38" as="geometry" />
        </mxCell>
        <mxCell id="6WqJ5rUopO2z71-LBIYI-44" value="&lt;span style=&quot;font-size: 16px;&quot;&gt;&lt;b&gt;RoomAllocation&lt;/b&gt;&lt;/span&gt;" style="rounded=0;whiteSpace=wrap;html=1;direction=west;strokeColor=#4C801A;strokeWidth=2;fontFamily=Times New Roman;" parent="1" vertex="1">
          <mxGeometry x="1781" y="210" width="138" height="60" as="geometry" />
        </mxCell>
        <mxCell id="6WqJ5rUopO2z71-LBIYI-46" value="&lt;div&gt;&lt;span style=&quot;font-size: 5px;&quot;&gt;&lt;b&gt;&lt;u&gt;allocation_id (Allocation ID)&lt;/u&gt;&lt;/b&gt;&lt;/span&gt;&lt;br&gt;&lt;/div&gt;" style="ellipse;whiteSpace=wrap;html=1;direction=west;strokeColor=#4C801A;strokeWidth=2;fontFamily=Times New Roman;" parent="1" vertex="1">
          <mxGeometry x="1650" y="357" width="54.5" height="42" as="geometry" />
        </mxCell>
        <mxCell id="6WqJ5rUopO2z71-LBIYI-47" value="&lt;span style=&quot;font-size: 5px;&quot;&gt;&lt;b&gt;allocation_date&lt;/b&gt;&lt;/span&gt;" style="ellipse;whiteSpace=wrap;html=1;direction=west;strokeColor=#4C801A;strokeWidth=2;fontFamily=Times New Roman;" parent="1" vertex="1">
          <mxGeometry x="1935" y="372" width="70" height="40" as="geometry" />
        </mxCell>
        <mxCell id="6WqJ5rUopO2z71-LBIYI-48" value="&lt;span style=&quot;font-size: 5px;&quot;&gt;&lt;b&gt;patient_id (Foreign Key)&lt;/b&gt;&lt;/span&gt;" style="ellipse;whiteSpace=wrap;html=1;direction=west;strokeColor=#4C801A;strokeWidth=2;fontFamily=Times New Roman;" parent="1" vertex="1">
          <mxGeometry x="1713" y="390" width="72" height="22" as="geometry" />
        </mxCell>
        <mxCell id="6WqJ5rUopO2z71-LBIYI-49" value="" style="endArrow=none;html=1;rounded=0;exitX=0.5;exitY=0;exitDx=0;exitDy=0;entryX=0.611;entryY=0.963;entryDx=0;entryDy=0;entryPerimeter=0;strokeColor=#4C801A;strokeWidth=2;fontFamily=Times New Roman;" parent="1" source="6WqJ5rUopO2z71-LBIYI-44" target="6WqJ5rUopO2z71-LBIYI-48" edge="1">
          <mxGeometry width="50" height="50" relative="1" as="geometry">
            <mxPoint x="1681" y="281" as="sourcePoint" />
            <mxPoint x="1661" y="236" as="targetPoint" />
          </mxGeometry>
        </mxCell>
        <mxCell id="6WqJ5rUopO2z71-LBIYI-50" value="" style="endArrow=none;html=1;rounded=0;exitX=0.5;exitY=0;exitDx=0;exitDy=0;entryX=0.228;entryY=0.947;entryDx=0;entryDy=0;entryPerimeter=0;strokeColor=#4C801A;strokeWidth=2;fontFamily=Times New Roman;" parent="1" source="6WqJ5rUopO2z71-LBIYI-44" target="6WqJ5rUopO2z71-LBIYI-46" edge="1">
          <mxGeometry width="50" height="50" relative="1" as="geometry">
            <mxPoint x="1701" y="301" as="sourcePoint" />
            <mxPoint x="1581" y="281" as="targetPoint" />
          </mxGeometry>
        </mxCell>
        <mxCell id="6WqJ5rUopO2z71-LBIYI-51" value="" style="endArrow=none;html=1;rounded=0;exitX=0.5;exitY=0;exitDx=0;exitDy=0;entryX=0.5;entryY=0;entryDx=0;entryDy=0;strokeColor=#4C801A;strokeWidth=2;fontFamily=Times New Roman;" parent="1" source="6WqJ5rUopO2z71-LBIYI-44" target="6WqJ5rUopO2z71-LBIYI-45" edge="1">
          <mxGeometry width="50" height="50" relative="1" as="geometry">
            <mxPoint x="1781" y="281" as="sourcePoint" />
            <mxPoint x="1821" y="236" as="targetPoint" />
          </mxGeometry>
        </mxCell>
        <mxCell id="6WqJ5rUopO2z71-LBIYI-52" value="" style="endArrow=none;html=1;rounded=0;exitX=0.5;exitY=0;exitDx=0;exitDy=0;entryX=0.5;entryY=1;entryDx=0;entryDy=0;strokeColor=#4C801A;strokeWidth=2;fontFamily=Times New Roman;" parent="1" source="6WqJ5rUopO2z71-LBIYI-44" target="6WqJ5rUopO2z71-LBIYI-47" edge="1">
          <mxGeometry width="50" height="50" relative="1" as="geometry">
            <mxPoint x="1791" y="318.5" as="sourcePoint" />
            <mxPoint x="1831" y="273.5" as="targetPoint" />
          </mxGeometry>
        </mxCell>
        <mxCell id="PI-kocEEDLTnwSgOIh5O-1" value="&lt;b style=&quot;font-size: 16px;&quot;&gt;&lt;br&gt;Patients&lt;br&gt;&lt;/b&gt;" style="rounded=0;whiteSpace=wrap;html=1;verticalAlign=top;strokeColor=#4C801A;strokeWidth=2;fontFamily=Times New Roman;" parent="1" vertex="1">
          <mxGeometry x="1137" y="210" width="120" height="60" as="geometry" />
        </mxCell>
        <mxCell id="PI-kocEEDLTnwSgOIh5O-2" value="&lt;b&gt;&lt;font style=&quot;font-size: 5px;&quot;&gt;Address&lt;/font&gt;&lt;/b&gt;" style="ellipse;whiteSpace=wrap;html=1;strokeColor=#4C801A;strokeWidth=2;fontFamily=Times New Roman;" parent="1" vertex="1">
          <mxGeometry x="1182" y="111" width="40" height="20" as="geometry" />
        </mxCell>
        <mxCell id="PI-kocEEDLTnwSgOIh5O-3" value="&lt;b&gt;&lt;font style=&quot;font-size: 5px;&quot;&gt;Sex&lt;/font&gt;&lt;/b&gt;" style="ellipse;whiteSpace=wrap;html=1;strokeColor=#4C801A;strokeWidth=2;fontFamily=Times New Roman;" parent="1" vertex="1">
          <mxGeometry x="1115" y="111" width="40" height="20" as="geometry" />
        </mxCell>
        <mxCell id="PI-kocEEDLTnwSgOIh5O-4" value="&lt;b&gt;&lt;font style=&quot;font-size: 5px;&quot;&gt;Name&lt;/font&gt;&lt;/b&gt;" style="ellipse;whiteSpace=wrap;html=1;strokeColor=#4C801A;strokeWidth=2;fontFamily=Times New Roman;" parent="1" vertex="1">
          <mxGeometry x="1062" y="126" width="40" height="20" as="geometry" />
        </mxCell>
        <mxCell id="PI-kocEEDLTnwSgOIh5O-5" value="&lt;font style=&quot;font-size: 5px;&quot;&gt;&lt;b&gt;date_admitted&lt;/b&gt;&lt;/font&gt;" style="ellipse;whiteSpace=wrap;html=1;strokeColor=#4C801A;strokeWidth=2;fontFamily=Times New Roman;" parent="1" vertex="1">
          <mxGeometry x="1305" y="116" width="80" height="30" as="geometry" />
        </mxCell>
        <mxCell id="PI-kocEEDLTnwSgOIh5O-6" value="&lt;b&gt;&lt;font style=&quot;font-size: 5px;&quot;&gt;contact_number&lt;/font&gt;&lt;/b&gt;" style="ellipse;whiteSpace=wrap;html=1;strokeColor=#4C801A;strokeWidth=2;fontFamily=Times New Roman;" parent="1" vertex="1">
          <mxGeometry x="1240" y="111" width="50" height="25" as="geometry" />
        </mxCell>
        <mxCell id="PI-kocEEDLTnwSgOIh5O-7" value="" style="endArrow=none;dashed=1;html=1;rounded=0;strokeColor=#4C801A;strokeWidth=2;fontFamily=Times New Roman;" parent="1" source="PI-kocEEDLTnwSgOIh5O-17" edge="1">
          <mxGeometry width="50" height="50" relative="1" as="geometry">
            <mxPoint x="1010" y="166" as="sourcePoint" />
            <mxPoint x="1050" y="166" as="targetPoint" />
          </mxGeometry>
        </mxCell>
        <mxCell id="PI-kocEEDLTnwSgOIh5O-9" value="" style="endArrow=none;html=1;rounded=0;entryX=0.5;entryY=1;entryDx=0;entryDy=0;exitX=0.45;exitY=0.019;exitDx=0;exitDy=0;exitPerimeter=0;strokeColor=#4C801A;strokeWidth=2;fontFamily=Times New Roman;" parent="1" source="PI-kocEEDLTnwSgOIh5O-1" target="PI-kocEEDLTnwSgOIh5O-3" edge="1">
          <mxGeometry width="50" height="50" relative="1" as="geometry">
            <mxPoint x="1191" y="174" as="sourcePoint" />
            <mxPoint x="1160" y="131" as="targetPoint" />
          </mxGeometry>
        </mxCell>
        <mxCell id="PI-kocEEDLTnwSgOIh5O-10" value="" style="endArrow=none;html=1;rounded=0;exitX=0.445;exitY=0.01;exitDx=0;exitDy=0;exitPerimeter=0;entryX=1;entryY=0.5;entryDx=0;entryDy=0;strokeColor=#4C801A;strokeWidth=2;fontFamily=Times New Roman;" parent="1" source="PI-kocEEDLTnwSgOIh5O-1" target="PI-kocEEDLTnwSgOIh5O-17" edge="1">
          <mxGeometry width="50" height="50" relative="1" as="geometry">
            <mxPoint x="1050" y="236" as="sourcePoint" />
            <mxPoint x="1040" y="191" as="targetPoint" />
          </mxGeometry>
        </mxCell>
        <mxCell id="PI-kocEEDLTnwSgOIh5O-11" value="" style="endArrow=none;html=1;rounded=0;entryX=0.5;entryY=1;entryDx=0;entryDy=0;exitX=0.45;exitY=-0.019;exitDx=0;exitDy=0;exitPerimeter=0;strokeColor=#4C801A;strokeWidth=2;fontFamily=Times New Roman;" parent="1" source="PI-kocEEDLTnwSgOIh5O-1" target="PI-kocEEDLTnwSgOIh5O-4" edge="1">
          <mxGeometry width="50" height="50" relative="1" as="geometry">
            <mxPoint x="1170" y="176" as="sourcePoint" />
            <mxPoint x="1110" y="131" as="targetPoint" />
          </mxGeometry>
        </mxCell>
        <mxCell id="PI-kocEEDLTnwSgOIh5O-12" value="" style="endArrow=none;html=1;rounded=0;exitX=0.421;exitY=0.01;exitDx=0;exitDy=0;entryX=0.5;entryY=1;entryDx=0;entryDy=0;exitPerimeter=0;strokeColor=#4C801A;strokeWidth=2;fontFamily=Times New Roman;" parent="1" source="PI-kocEEDLTnwSgOIh5O-1" target="PI-kocEEDLTnwSgOIh5O-2" edge="1">
          <mxGeometry width="50" height="50" relative="1" as="geometry">
            <mxPoint x="1220" y="176" as="sourcePoint" />
            <mxPoint x="1210" y="131" as="targetPoint" />
          </mxGeometry>
        </mxCell>
        <mxCell id="PI-kocEEDLTnwSgOIh5O-13" value="" style="endArrow=none;html=1;rounded=0;entryX=0;entryY=1;entryDx=0;entryDy=0;exitX=0.451;exitY=0.012;exitDx=0;exitDy=0;exitPerimeter=0;strokeColor=#4C801A;strokeWidth=2;fontFamily=Times New Roman;" parent="1" source="PI-kocEEDLTnwSgOIh5O-1" target="PI-kocEEDLTnwSgOIh5O-5" edge="1">
          <mxGeometry width="50" height="50" relative="1" as="geometry">
            <mxPoint x="1197" y="198" as="sourcePoint" />
            <mxPoint x="1330" y="146" as="targetPoint" />
          </mxGeometry>
        </mxCell>
        <mxCell id="PI-kocEEDLTnwSgOIh5O-14" value="" style="endArrow=none;html=1;rounded=0;exitX=0.455;exitY=0;exitDx=0;exitDy=0;entryX=0.337;entryY=0.954;entryDx=0;entryDy=0;entryPerimeter=0;exitPerimeter=0;strokeColor=#4C801A;strokeWidth=2;fontFamily=Times New Roman;" parent="1" source="PI-kocEEDLTnwSgOIh5O-1" target="PI-kocEEDLTnwSgOIh5O-6" edge="1">
          <mxGeometry width="50" height="50" relative="1" as="geometry">
            <mxPoint x="1280" y="176" as="sourcePoint" />
            <mxPoint x="1270" y="131" as="targetPoint" />
          </mxGeometry>
        </mxCell>
        <mxCell id="PI-kocEEDLTnwSgOIh5O-15" value="" style="endArrow=none;html=1;rounded=0;exitX=0.451;exitY=0.002;exitDx=0;exitDy=0;entryX=0;entryY=0.5;entryDx=0;entryDy=0;exitPerimeter=0;strokeColor=#4C801A;strokeWidth=2;fontFamily=Times New Roman;" parent="1" source="PI-kocEEDLTnwSgOIh5O-1" target="PI-kocEEDLTnwSgOIh5O-18" edge="1">
          <mxGeometry width="50" height="50" relative="1" as="geometry">
            <mxPoint x="1350" y="213.5" as="sourcePoint" />
            <mxPoint x="1340" y="168.5" as="targetPoint" />
          </mxGeometry>
        </mxCell>
        <mxCell id="PI-kocEEDLTnwSgOIh5O-17" value="&lt;b&gt;&lt;font size=&quot;1&quot; style=&quot;&quot;&gt;&lt;u style=&quot;font-size: 6px;&quot;&gt;Patient ID (Primary Key)&lt;/u&gt;&lt;/font&gt;&lt;/b&gt;" style="ellipse;whiteSpace=wrap;html=1;strokeColor=#4C801A;strokeWidth=2;fontFamily=Times New Roman;" parent="1" vertex="1">
          <mxGeometry x="1014" y="171" width="60" height="30" as="geometry" />
        </mxCell>
        <mxCell id="PI-kocEEDLTnwSgOIh5O-18" value="&lt;font style=&quot;font-size: 5px;&quot;&gt;&lt;b&gt;date_discharged&lt;/b&gt;&lt;/font&gt;" style="ellipse;whiteSpace=wrap;html=1;strokeColor=#4C801A;strokeWidth=2;fontFamily=Times New Roman;" parent="1" vertex="1">
          <mxGeometry x="1296" y="175" width="80" height="30" as="geometry" />
        </mxCell>
        <mxCell id="PI-kocEEDLTnwSgOIh5O-84" value="&lt;font style=&quot;font-size: 16px;&quot;&gt;&lt;b&gt;Doctors&lt;/b&gt;&lt;/font&gt;" style="rounded=0;whiteSpace=wrap;html=1;strokeColor=#4C801A;strokeWidth=2;fontFamily=Times New Roman;" parent="1" vertex="1">
          <mxGeometry x="1282.5" y="683" width="120" height="60" as="geometry" />
        </mxCell>
        <mxCell id="PI-kocEEDLTnwSgOIh5O-85" value="&lt;b&gt;&lt;font style=&quot;font-size: 5px;&quot;&gt;Contact Information&lt;/font&gt;&lt;/b&gt;" style="ellipse;whiteSpace=wrap;html=1;strokeColor=#4C801A;strokeWidth=2;fontFamily=Times New Roman;" parent="1" vertex="1">
          <mxGeometry x="1282.5" y="593" width="80" height="30" as="geometry" />
        </mxCell>
        <mxCell id="PI-kocEEDLTnwSgOIh5O-86" value="&lt;b&gt;&lt;u&gt;&lt;font style=&quot;font-size: 5px;&quot;&gt;Doctor ID&amp;nbsp;&lt;/font&gt;&lt;/u&gt;&lt;/b&gt;" style="ellipse;whiteSpace=wrap;html=1;strokeColor=#4C801A;strokeWidth=2;fontFamily=Times New Roman;" parent="1" vertex="1">
          <mxGeometry x="1158.5" y="635.5" width="69" height="34.5" as="geometry" />
        </mxCell>
        <mxCell id="PI-kocEEDLTnwSgOIh5O-88" value="&lt;b&gt;&lt;font style=&quot;font-size: 5px;&quot;&gt;Shift&lt;/font&gt;&lt;/b&gt;&lt;span style=&quot;color: rgba(0, 0, 0, 0); font-size: 0px; text-align: start; text-wrap: nowrap;&quot;&gt;%3CmxGraphModel%3E%3Croot%3E%3CmxCell%20id%3D%220%22%2F%3E%3CmxCell%20id%3D%221%22%20parent%3D%220%22%2F%3E%3CmxCell%20id%3D%222%22%20value%3D%22%26lt%3Bb%26gt%3B%26lt%3Bfont%20style%3D%26quot%3Bfont-size%3A%205px%3B%26quot%3B%26gt%3BSpecialty%26lt%3B%2Ffont%26gt%3B%26lt%3B%2Fb%26gt%3B%22%20style%3D%22ellipse%3BwhiteSpace%3Dwrap%3Bhtml%3D1%3BstrokeColor%3Ddefault%3B%22%20vertex%3D%221%22%20parent%3D%221%22%3E%3CmxGeometry%20x%3D%221020%22%20y%3D%22215%22%20width%3D%2270%22%20height%3D%2230%22%20as%3D%22geometry%22%2F%3E%3C%2FmxCell%3E%3CmxCell%20id%3D%223%22%20value%3D%22%22%20style%3D%22endArrow%3Dnone%3Bhtml%3D1%3Brounded%3D0%3BstrokeColor%3Ddefault%3B%22%20edge%3D%221%22%20parent%3D%221%22%3E%3CmxGeometry%20width%3D%2250%22%20height%3D%2250%22%20relative%3D%221%22%20as%3D%22geometry%22%3E%3CmxPoint%20x%3D%221010%22%20y%3D%22290%22%20as%3D%22sourcePoint%22%2F%3E%3CmxPoint%20x%3D%221050%22%20y%3D%22245%22%20as%3D%22targetPoint%22%2F%3E%3C%2FmxGeometry%3E%3C%2FmxCell%3E%3C%2Froot%3E%3C%2FmxGraphModel%3E&lt;/span&gt;" style="ellipse;whiteSpace=wrap;html=1;strokeColor=#4C801A;strokeWidth=2;fontFamily=Times New Roman;" parent="1" vertex="1">
          <mxGeometry x="1445.5" y="661" width="70" height="40" as="geometry" />
        </mxCell>
        <mxCell id="PI-kocEEDLTnwSgOIh5O-91" value="&lt;b&gt;&lt;font style=&quot;font-size: 5px;&quot;&gt;Name&lt;/font&gt;&lt;/b&gt;" style="ellipse;whiteSpace=wrap;html=1;strokeColor=#4C801A;strokeWidth=2;fontFamily=Times New Roman;" parent="1" vertex="1">
          <mxGeometry x="1218.5" y="610.5" width="60" height="20" as="geometry" />
        </mxCell>
        <mxCell id="PI-kocEEDLTnwSgOIh5O-94" value="" style="endArrow=none;html=1;rounded=0;exitX=0.5;exitY=0;exitDx=0;exitDy=0;entryX=0.611;entryY=0.963;entryDx=0;entryDy=0;entryPerimeter=0;strokeColor=#4C801A;strokeWidth=2;fontFamily=Times New Roman;" parent="1" source="PI-kocEEDLTnwSgOIh5O-84" target="PI-kocEEDLTnwSgOIh5O-91" edge="1">
          <mxGeometry width="50" height="50" relative="1" as="geometry">
            <mxPoint x="1285.5" y="684" as="sourcePoint" />
            <mxPoint x="1265.5" y="639" as="targetPoint" />
          </mxGeometry>
        </mxCell>
        <mxCell id="PI-kocEEDLTnwSgOIh5O-96" value="" style="endArrow=none;html=1;rounded=0;exitX=0.5;exitY=0;exitDx=0;exitDy=0;entryX=0.954;entryY=0.74;entryDx=0;entryDy=0;entryPerimeter=0;strokeColor=#4C801A;strokeWidth=2;fontFamily=Times New Roman;" parent="1" source="PI-kocEEDLTnwSgOIh5O-84" target="PI-kocEEDLTnwSgOIh5O-86" edge="1">
          <mxGeometry width="50" height="50" relative="1" as="geometry">
            <mxPoint x="1305.5" y="704" as="sourcePoint" />
            <mxPoint x="1185.5" y="684" as="targetPoint" />
          </mxGeometry>
        </mxCell>
        <mxCell id="PI-kocEEDLTnwSgOIh5O-98" value="" style="endArrow=none;html=1;rounded=0;exitX=0.5;exitY=0;exitDx=0;exitDy=0;entryX=0.5;entryY=1;entryDx=0;entryDy=0;strokeColor=#4C801A;strokeWidth=2;fontFamily=Times New Roman;" parent="1" source="PI-kocEEDLTnwSgOIh5O-84" target="PI-kocEEDLTnwSgOIh5O-85" edge="1">
          <mxGeometry width="50" height="50" relative="1" as="geometry">
            <mxPoint x="1385.5" y="684" as="sourcePoint" />
            <mxPoint x="1425.5" y="639" as="targetPoint" />
          </mxGeometry>
        </mxCell>
        <mxCell id="PI-kocEEDLTnwSgOIh5O-99" value="" style="endArrow=none;html=1;rounded=0;exitX=0.5;exitY=0;exitDx=0;exitDy=0;entryX=0.019;entryY=0.584;entryDx=0;entryDy=0;entryPerimeter=0;strokeColor=#4C801A;strokeWidth=2;fontFamily=Times New Roman;" parent="1" source="PI-kocEEDLTnwSgOIh5O-84" target="PI-kocEEDLTnwSgOIh5O-88" edge="1">
          <mxGeometry width="50" height="50" relative="1" as="geometry">
            <mxPoint x="1395.5" y="721.5" as="sourcePoint" />
            <mxPoint x="1435.5" y="676.5" as="targetPoint" />
          </mxGeometry>
        </mxCell>
        <mxCell id="PI-kocEEDLTnwSgOIh5O-103" value="&lt;font style=&quot;font-size: 16px;&quot;&gt;&lt;b&gt;Room&lt;/b&gt;&lt;/font&gt;" style="rounded=0;whiteSpace=wrap;html=1;strokeColor=#4C801A;strokeWidth=2;fontFamily=Times New Roman;" parent="1" vertex="1">
          <mxGeometry x="2090" y="98" width="120" height="60" as="geometry" />
        </mxCell>
        <mxCell id="PI-kocEEDLTnwSgOIh5O-104" value="&lt;b&gt;&lt;font style=&quot;font-size: 5px;&quot;&gt;Period&lt;/font&gt;&lt;/b&gt;" style="ellipse;whiteSpace=wrap;html=1;strokeColor=#4C801A;strokeWidth=2;fontFamily=Times New Roman;" parent="1" vertex="1">
          <mxGeometry x="2238" y="53" width="80" height="30" as="geometry" />
        </mxCell>
        <mxCell id="PI-kocEEDLTnwSgOIh5O-105" value="&lt;b&gt;&lt;u&gt;&lt;font style=&quot;font-size: 5px;&quot;&gt;RoomID&lt;/font&gt;&lt;/u&gt;&lt;/b&gt;" style="ellipse;whiteSpace=wrap;html=1;strokeColor=#4C801A;strokeWidth=2;fontFamily=Times New Roman;" parent="1" vertex="1">
          <mxGeometry x="2007" y="61" width="50" height="20" as="geometry" />
        </mxCell>
        <mxCell id="PI-kocEEDLTnwSgOIh5O-107" value="&lt;b&gt;&lt;font style=&quot;font-size: 5px;&quot;&gt;Room_type&lt;/font&gt;&lt;/b&gt;" style="ellipse;whiteSpace=wrap;html=1;strokeColor=#4C801A;strokeWidth=2;fontFamily=Times New Roman;" parent="1" vertex="1">
          <mxGeometry x="2109" y="33" width="60" height="20" as="geometry" />
        </mxCell>
        <mxCell id="PI-kocEEDLTnwSgOIh5O-108" value="" style="endArrow=none;html=1;rounded=0;exitX=0.5;exitY=0;exitDx=0;exitDy=0;entryX=0.611;entryY=0.963;entryDx=0;entryDy=0;entryPerimeter=0;strokeColor=#4C801A;strokeWidth=2;fontFamily=Times New Roman;" parent="1" source="PI-kocEEDLTnwSgOIh5O-103" target="PI-kocEEDLTnwSgOIh5O-107" edge="1">
          <mxGeometry width="50" height="50" relative="1" as="geometry">
            <mxPoint x="2095" y="105.5" as="sourcePoint" />
            <mxPoint x="2075" y="60.5" as="targetPoint" />
          </mxGeometry>
        </mxCell>
        <mxCell id="PI-kocEEDLTnwSgOIh5O-109" value="" style="endArrow=none;html=1;rounded=0;exitX=0.5;exitY=0;exitDx=0;exitDy=0;entryX=0.954;entryY=0.74;entryDx=0;entryDy=0;entryPerimeter=0;strokeColor=#4C801A;strokeWidth=2;fontFamily=Times New Roman;" parent="1" source="PI-kocEEDLTnwSgOIh5O-103" target="PI-kocEEDLTnwSgOIh5O-105" edge="1">
          <mxGeometry width="50" height="50" relative="1" as="geometry">
            <mxPoint x="2115" y="125.5" as="sourcePoint" />
            <mxPoint x="1995" y="105.5" as="targetPoint" />
          </mxGeometry>
        </mxCell>
        <mxCell id="PI-kocEEDLTnwSgOIh5O-110" value="" style="endArrow=none;html=1;rounded=0;exitX=0.5;exitY=0;exitDx=0;exitDy=0;entryX=0;entryY=1;entryDx=0;entryDy=0;strokeColor=#4C801A;strokeWidth=2;fontFamily=Times New Roman;" parent="1" source="PI-kocEEDLTnwSgOIh5O-103" target="PI-kocEEDLTnwSgOIh5O-104" edge="1">
          <mxGeometry width="50" height="50" relative="1" as="geometry">
            <mxPoint x="2195" y="105.5" as="sourcePoint" />
            <mxPoint x="2235" y="60.5" as="targetPoint" />
          </mxGeometry>
        </mxCell>
        <mxCell id="PI-kocEEDLTnwSgOIh5O-112" value="&lt;font style=&quot;font-size: 16px;&quot;&gt;&lt;b&gt;Employee&lt;/b&gt;&lt;/font&gt;" style="rounded=0;whiteSpace=wrap;html=1;direction=east;strokeColor=#4C801A;strokeWidth=2;fontFamily=Times New Roman;" parent="1" vertex="1">
          <mxGeometry x="2381" y="659" width="120" height="60" as="geometry" />
        </mxCell>
        <mxCell id="PI-kocEEDLTnwSgOIh5O-113" value="&lt;font style=&quot;font-size: 5px;&quot;&gt;&lt;b&gt;eid (Employee ID)&lt;/b&gt;&lt;/font&gt;" style="ellipse;whiteSpace=wrap;html=1;direction=east;strokeColor=#4C801A;strokeWidth=2;fontFamily=Times New Roman;" parent="1" vertex="1">
          <mxGeometry x="2286" y="611" width="50" height="25" as="geometry" />
        </mxCell>
        <mxCell id="PI-kocEEDLTnwSgOIh5O-114" value="&lt;span style=&quot;font-size: 5px;&quot;&gt;&lt;b&gt;address&lt;/b&gt;&lt;/span&gt;" style="ellipse;whiteSpace=wrap;html=1;direction=east;strokeColor=#4C801A;strokeWidth=2;fontFamily=Times New Roman;" parent="1" vertex="1">
          <mxGeometry x="2361" y="519" width="50" height="30" as="geometry" />
        </mxCell>
        <mxCell id="PI-kocEEDLTnwSgOIh5O-115" value="&lt;font style=&quot;font-size: 5px;&quot;&gt;salary&lt;/font&gt;" style="ellipse;whiteSpace=wrap;html=1;direction=east;strokeColor=#4C801A;strokeWidth=2;fontFamily=Times New Roman;" parent="1" vertex="1">
          <mxGeometry x="2316" y="538" width="45" height="25" as="geometry" />
        </mxCell>
        <mxCell id="PI-kocEEDLTnwSgOIh5O-116" value="&lt;span style=&quot;font-size: 5px;&quot;&gt;&lt;b&gt;contact_no&lt;/b&gt;&lt;/span&gt;" style="ellipse;whiteSpace=wrap;html=1;direction=east;strokeColor=#4C801A;strokeWidth=2;fontFamily=Times New Roman;" parent="1" vertex="1">
          <mxGeometry x="2484" y="526.5" width="60" height="35" as="geometry" />
        </mxCell>
        <mxCell id="PI-kocEEDLTnwSgOIh5O-117" value="&lt;h6 style=&quot;font-size: 5px;&quot;&gt;name&lt;/h6&gt;" style="ellipse;whiteSpace=wrap;html=1;direction=east;strokeColor=#4C801A;strokeWidth=2;fontFamily=Times New Roman;" parent="1" vertex="1">
          <mxGeometry x="2301" y="575" width="50" height="19" as="geometry" />
        </mxCell>
        <mxCell id="PI-kocEEDLTnwSgOIh5O-118" value="&lt;span style=&quot;font-size: 5px;&quot;&gt;&lt;b&gt;sex&lt;/b&gt;&lt;/span&gt;" style="ellipse;whiteSpace=wrap;html=1;direction=east;strokeColor=#4C801A;strokeWidth=2;fontFamily=Times New Roman;" parent="1" vertex="1">
          <mxGeometry x="2433" y="519" width="40" height="30" as="geometry" />
        </mxCell>
        <mxCell id="PI-kocEEDLTnwSgOIh5O-119" value="&lt;font style=&quot;font-size: 5px;&quot;&gt;&lt;b&gt;role&lt;/b&gt;&lt;/font&gt;" style="ellipse;whiteSpace=wrap;html=1;direction=east;strokeColor=#4C801A;strokeWidth=2;fontFamily=Times New Roman;" parent="1" vertex="1">
          <mxGeometry x="2523" y="573" width="60" height="30" as="geometry" />
        </mxCell>
        <mxCell id="PI-kocEEDLTnwSgOIh5O-120" value="" style="endArrow=none;html=1;rounded=0;entryX=0.5;entryY=1;entryDx=0;entryDy=0;exitX=0.5;exitY=0;exitDx=0;exitDy=0;strokeColor=#4C801A;strokeWidth=2;fontFamily=Times New Roman;" parent="1" source="PI-kocEEDLTnwSgOIh5O-112" target="PI-kocEEDLTnwSgOIh5O-114" edge="1">
          <mxGeometry width="50" height="50" relative="1" as="geometry">
            <mxPoint x="2341" y="626" as="sourcePoint" />
            <mxPoint x="2401" y="556" as="targetPoint" />
          </mxGeometry>
        </mxCell>
        <mxCell id="PI-kocEEDLTnwSgOIh5O-121" value="" style="endArrow=none;html=1;rounded=0;entryX=0.329;entryY=0.986;entryDx=0;entryDy=0;exitX=0.5;exitY=0;exitDx=0;exitDy=0;entryPerimeter=0;strokeColor=#4C801A;strokeWidth=2;fontFamily=Times New Roman;" parent="1" source="PI-kocEEDLTnwSgOIh5O-112" target="PI-kocEEDLTnwSgOIh5O-118" edge="1">
          <mxGeometry width="50" height="50" relative="1" as="geometry">
            <mxPoint x="2431" y="646" as="sourcePoint" />
            <mxPoint x="2416" y="561" as="targetPoint" />
          </mxGeometry>
        </mxCell>
        <mxCell id="PI-kocEEDLTnwSgOIh5O-122" value="" style="endArrow=none;html=1;rounded=0;entryX=0.5;entryY=1;entryDx=0;entryDy=0;exitX=0.5;exitY=0;exitDx=0;exitDy=0;strokeColor=#4C801A;strokeWidth=2;fontFamily=Times New Roman;" parent="1" source="PI-kocEEDLTnwSgOIh5O-112" target="PI-kocEEDLTnwSgOIh5O-116" edge="1">
          <mxGeometry width="50" height="50" relative="1" as="geometry">
            <mxPoint x="2431" y="646" as="sourcePoint" />
            <mxPoint x="2464" y="571" as="targetPoint" />
          </mxGeometry>
        </mxCell>
        <mxCell id="PI-kocEEDLTnwSgOIh5O-123" value="" style="endArrow=none;html=1;rounded=0;entryX=0;entryY=0.5;entryDx=0;entryDy=0;exitX=0.5;exitY=0;exitDx=0;exitDy=0;strokeColor=#4C801A;strokeWidth=2;fontFamily=Times New Roman;" parent="1" source="PI-kocEEDLTnwSgOIh5O-112" target="PI-kocEEDLTnwSgOIh5O-119" edge="1">
          <mxGeometry width="50" height="50" relative="1" as="geometry">
            <mxPoint x="2431" y="646" as="sourcePoint" />
            <mxPoint x="2531" y="596" as="targetPoint" />
          </mxGeometry>
        </mxCell>
        <mxCell id="PI-kocEEDLTnwSgOIh5O-124" value="" style="endArrow=none;html=1;rounded=0;entryX=0.5;entryY=1;entryDx=0;entryDy=0;exitX=0.5;exitY=0;exitDx=0;exitDy=0;strokeColor=#4C801A;strokeWidth=2;fontFamily=Times New Roman;" parent="1" target="PI-kocEEDLTnwSgOIh5O-115" edge="1" source="PI-kocEEDLTnwSgOIh5O-112">
          <mxGeometry width="50" height="50" relative="1" as="geometry">
            <mxPoint x="2421" y="636" as="sourcePoint" />
            <mxPoint x="2416" y="561" as="targetPoint" />
          </mxGeometry>
        </mxCell>
        <mxCell id="PI-kocEEDLTnwSgOIh5O-125" value="" style="endArrow=none;html=1;rounded=0;entryX=1;entryY=1;entryDx=0;entryDy=0;exitX=0.5;exitY=0;exitDx=0;exitDy=0;strokeColor=#4C801A;strokeWidth=2;fontFamily=Times New Roman;" parent="1" source="PI-kocEEDLTnwSgOIh5O-112" target="PI-kocEEDLTnwSgOIh5O-117" edge="1">
          <mxGeometry width="50" height="50" relative="1" as="geometry">
            <mxPoint x="2431" y="646" as="sourcePoint" />
            <mxPoint x="2376" y="581" as="targetPoint" />
          </mxGeometry>
        </mxCell>
        <mxCell id="PI-kocEEDLTnwSgOIh5O-126" value="" style="endArrow=none;html=1;rounded=0;entryX=1;entryY=0.5;entryDx=0;entryDy=0;exitX=0.5;exitY=0;exitDx=0;exitDy=0;strokeColor=#4C801A;strokeWidth=2;fontFamily=Times New Roman;" parent="1" source="PI-kocEEDLTnwSgOIh5O-112" target="PI-kocEEDLTnwSgOIh5O-113" edge="1">
          <mxGeometry width="50" height="50" relative="1" as="geometry">
            <mxPoint x="2431" y="646" as="sourcePoint" />
            <mxPoint x="2364" y="598" as="targetPoint" />
          </mxGeometry>
        </mxCell>
        <mxCell id="6WqJ5rUopO2z71-LBIYI-3" value="&lt;font style=&quot;font-size: 4px;&quot;&gt;&lt;b&gt;nid (National ID)&lt;/b&gt;&lt;/font&gt;" style="ellipse;whiteSpace=wrap;html=1;direction=east;strokeColor=#4C801A;strokeWidth=2;fontFamily=Times New Roman;" parent="1" vertex="1">
          <mxGeometry x="2529" y="606" width="63" height="30" as="geometry" />
        </mxCell>
        <mxCell id="6WqJ5rUopO2z71-LBIYI-5" value="" style="endArrow=none;html=1;rounded=0;entryX=0;entryY=0.5;entryDx=0;entryDy=0;exitX=0.5;exitY=0;exitDx=0;exitDy=0;strokeColor=#4C801A;strokeWidth=2;fontFamily=Times New Roman;" parent="1" source="PI-kocEEDLTnwSgOIh5O-112" target="6WqJ5rUopO2z71-LBIYI-3" edge="1">
          <mxGeometry width="50" height="50" relative="1" as="geometry">
            <mxPoint x="2424" y="639" as="sourcePoint" />
            <mxPoint x="2526" y="591" as="targetPoint" />
          </mxGeometry>
        </mxCell>
        <mxCell id="6WqJ5rUopO2z71-LBIYI-6" value="&lt;font style=&quot;font-size: 16px;&quot;&gt;&lt;b&gt;BILL&lt;/b&gt;&lt;/font&gt;" style="rounded=0;whiteSpace=wrap;html=1;direction=west;strokeColor=#4C801A;strokeWidth=2;fontFamily=Times New Roman;" parent="1" vertex="1">
          <mxGeometry x="1713" y="992" width="120" height="60" as="geometry" />
        </mxCell>
        <mxCell id="6WqJ5rUopO2z71-LBIYI-7" value="&lt;span style=&quot;font-size: 5px;&quot;&gt;&lt;b&gt;amount&lt;/b&gt;&lt;/span&gt;" style="ellipse;whiteSpace=wrap;html=1;direction=west;strokeColor=#4C801A;strokeWidth=2;fontFamily=Times New Roman;" parent="1" vertex="1">
          <mxGeometry x="1770" y="1104" width="80" height="30" as="geometry" />
        </mxCell>
        <mxCell id="6WqJ5rUopO2z71-LBIYI-8" value="&lt;span style=&quot;font-size: 5px;&quot;&gt;&lt;b&gt;&lt;u&gt;bill_id (Bill ID)&lt;/u&gt;&lt;/b&gt;&lt;/span&gt;" style="ellipse;whiteSpace=wrap;html=1;direction=west;strokeColor=#4C801A;strokeWidth=2;fontFamily=Times New Roman;" parent="1" vertex="1">
          <mxGeometry x="1596" y="1104" width="50" height="20" as="geometry" />
        </mxCell>
        <mxCell id="6WqJ5rUopO2z71-LBIYI-9" value="&lt;span style=&quot;font-size: 5px;&quot;&gt;&lt;b&gt;status&lt;/b&gt;&lt;/span&gt;" style="ellipse;whiteSpace=wrap;html=1;direction=west;strokeColor=#4C801A;strokeWidth=2;fontFamily=Times New Roman;" parent="1" vertex="1">
          <mxGeometry x="1896" y="1091" width="70" height="40" as="geometry" />
        </mxCell>
        <mxCell id="6WqJ5rUopO2z71-LBIYI-10" value="&lt;span style=&quot;font-size: 5px;&quot;&gt;&lt;b&gt;patient_id (Foreign Key)&lt;/b&gt;&lt;/span&gt;" style="ellipse;whiteSpace=wrap;html=1;direction=west;strokeColor=#4C801A;strokeWidth=2;fontFamily=Times New Roman;" parent="1" vertex="1">
          <mxGeometry x="1668" y="1109" width="72" height="22" as="geometry" />
        </mxCell>
        <mxCell id="6WqJ5rUopO2z71-LBIYI-11" value="" style="endArrow=none;html=1;rounded=0;exitX=0.5;exitY=0;exitDx=0;exitDy=0;entryX=0.611;entryY=0.963;entryDx=0;entryDy=0;entryPerimeter=0;strokeColor=#4C801A;strokeWidth=2;fontFamily=Times New Roman;" parent="1" source="6WqJ5rUopO2z71-LBIYI-6" target="6WqJ5rUopO2z71-LBIYI-10" edge="1">
          <mxGeometry width="50" height="50" relative="1" as="geometry">
            <mxPoint x="1723" y="992" as="sourcePoint" />
            <mxPoint x="1703" y="947" as="targetPoint" />
          </mxGeometry>
        </mxCell>
        <mxCell id="6WqJ5rUopO2z71-LBIYI-12" value="" style="endArrow=none;html=1;rounded=0;exitX=0.5;exitY=0;exitDx=0;exitDy=0;entryX=0.323;entryY=1.057;entryDx=0;entryDy=0;entryPerimeter=0;strokeColor=#4C801A;strokeWidth=2;fontFamily=Times New Roman;" parent="1" source="6WqJ5rUopO2z71-LBIYI-6" target="6WqJ5rUopO2z71-LBIYI-8" edge="1">
          <mxGeometry width="50" height="50" relative="1" as="geometry">
            <mxPoint x="1743" y="1012" as="sourcePoint" />
            <mxPoint x="1623" y="992" as="targetPoint" />
          </mxGeometry>
        </mxCell>
        <mxCell id="6WqJ5rUopO2z71-LBIYI-13" value="" style="endArrow=none;html=1;rounded=0;exitX=0.5;exitY=0;exitDx=0;exitDy=0;entryX=0.5;entryY=1;entryDx=0;entryDy=0;strokeColor=#4C801A;strokeWidth=2;fontFamily=Times New Roman;" parent="1" source="6WqJ5rUopO2z71-LBIYI-6" target="6WqJ5rUopO2z71-LBIYI-7" edge="1">
          <mxGeometry width="50" height="50" relative="1" as="geometry">
            <mxPoint x="1823" y="992" as="sourcePoint" />
            <mxPoint x="1863" y="947" as="targetPoint" />
          </mxGeometry>
        </mxCell>
        <mxCell id="6WqJ5rUopO2z71-LBIYI-14" value="" style="endArrow=none;html=1;rounded=0;exitX=0.5;exitY=0;exitDx=0;exitDy=0;entryX=0.639;entryY=0.961;entryDx=0;entryDy=0;entryPerimeter=0;strokeColor=#4C801A;strokeWidth=2;fontFamily=Times New Roman;" parent="1" source="6WqJ5rUopO2z71-LBIYI-6" target="6WqJ5rUopO2z71-LBIYI-9" edge="1">
          <mxGeometry width="50" height="50" relative="1" as="geometry">
            <mxPoint x="1833" y="1029.5" as="sourcePoint" />
            <mxPoint x="1873" y="984.5" as="targetPoint" />
          </mxGeometry>
        </mxCell>
        <mxCell id="6WqJ5rUopO2z71-LBIYI-15" value="&lt;font style=&quot;font-size: 16px;&quot;&gt;&lt;b&gt;RECORD&lt;/b&gt;&lt;/font&gt;" style="rounded=0;whiteSpace=wrap;html=1;strokeColor=#4C801A;strokeWidth=2;fontFamily=Times New Roman;" parent="1" vertex="1">
          <mxGeometry x="765" y="1109" width="120" height="60" as="geometry" />
        </mxCell>
        <mxCell id="6WqJ5rUopO2z71-LBIYI-16" value="&lt;span style=&quot;font-size: 5px;&quot;&gt;&lt;b&gt;appointment_id (Foreign Key)&lt;/b&gt;&lt;/span&gt;" style="ellipse;whiteSpace=wrap;html=1;strokeColor=#4C801A;strokeWidth=2;fontFamily=Times New Roman;" parent="1" vertex="1">
          <mxGeometry x="849" y="1041" width="80" height="30" as="geometry" />
        </mxCell>
        <mxCell id="6WqJ5rUopO2z71-LBIYI-17" value="&lt;div&gt;&lt;span style=&quot;font-size: 5px;&quot;&gt;&lt;b&gt;&lt;u&gt;record_id (Record ID)&lt;/u&gt;&lt;/b&gt;&lt;/span&gt;&lt;/div&gt;&lt;div&gt;&lt;br&gt;&lt;/div&gt;" style="ellipse;whiteSpace=wrap;html=1;strokeColor=#4C801A;strokeWidth=2;fontFamily=Times New Roman;" parent="1" vertex="1">
          <mxGeometry x="681" y="1059" width="59" height="36" as="geometry" />
        </mxCell>
        <mxCell id="6WqJ5rUopO2z71-LBIYI-18" value="&lt;span style=&quot;font-size: 5px;&quot;&gt;&lt;b&gt;description&lt;/b&gt;&lt;/span&gt;" style="ellipse;whiteSpace=wrap;html=1;strokeColor=#4C801A;strokeWidth=2;fontFamily=Times New Roman;" parent="1" vertex="1">
          <mxGeometry x="925" y="1079" width="70" height="40" as="geometry" />
        </mxCell>
        <mxCell id="6WqJ5rUopO2z71-LBIYI-19" value="&lt;span style=&quot;font-size: 5px;&quot;&gt;&lt;b&gt;patient_id (Foreign Key)&lt;/b&gt;&lt;/span&gt;" style="ellipse;whiteSpace=wrap;html=1;strokeColor=#4C801A;strokeWidth=2;fontFamily=Times New Roman;" parent="1" vertex="1">
          <mxGeometry x="750" y="1049" width="72" height="22" as="geometry" />
        </mxCell>
        <mxCell id="6WqJ5rUopO2z71-LBIYI-20" value="" style="endArrow=none;html=1;rounded=0;exitX=0.5;exitY=0;exitDx=0;exitDy=0;entryX=0.611;entryY=0.963;entryDx=0;entryDy=0;entryPerimeter=0;strokeColor=#4C801A;strokeWidth=2;fontFamily=Times New Roman;" parent="1" source="6WqJ5rUopO2z71-LBIYI-15" target="6WqJ5rUopO2z71-LBIYI-19" edge="1">
          <mxGeometry width="50" height="50" relative="1" as="geometry">
            <mxPoint x="775" y="1109" as="sourcePoint" />
            <mxPoint x="755" y="1064" as="targetPoint" />
          </mxGeometry>
        </mxCell>
        <mxCell id="6WqJ5rUopO2z71-LBIYI-21" value="" style="endArrow=none;html=1;rounded=0;exitX=0.5;exitY=0;exitDx=0;exitDy=0;entryX=0.954;entryY=0.74;entryDx=0;entryDy=0;entryPerimeter=0;strokeColor=#4C801A;strokeWidth=2;fontFamily=Times New Roman;" parent="1" source="6WqJ5rUopO2z71-LBIYI-15" target="6WqJ5rUopO2z71-LBIYI-17" edge="1">
          <mxGeometry width="50" height="50" relative="1" as="geometry">
            <mxPoint x="795" y="1129" as="sourcePoint" />
            <mxPoint x="675" y="1109" as="targetPoint" />
          </mxGeometry>
        </mxCell>
        <mxCell id="6WqJ5rUopO2z71-LBIYI-22" value="" style="endArrow=none;html=1;rounded=0;exitX=0.5;exitY=0;exitDx=0;exitDy=0;entryX=0;entryY=1;entryDx=0;entryDy=0;strokeColor=#4C801A;strokeWidth=2;fontFamily=Times New Roman;" parent="1" source="6WqJ5rUopO2z71-LBIYI-15" target="6WqJ5rUopO2z71-LBIYI-16" edge="1">
          <mxGeometry width="50" height="50" relative="1" as="geometry">
            <mxPoint x="875" y="1109" as="sourcePoint" />
            <mxPoint x="915" y="1064" as="targetPoint" />
          </mxGeometry>
        </mxCell>
        <mxCell id="6WqJ5rUopO2z71-LBIYI-23" value="" style="endArrow=none;html=1;rounded=0;exitX=0.5;exitY=0;exitDx=0;exitDy=0;entryX=0.019;entryY=0.584;entryDx=0;entryDy=0;entryPerimeter=0;strokeColor=#4C801A;strokeWidth=2;fontFamily=Times New Roman;" parent="1" source="6WqJ5rUopO2z71-LBIYI-15" target="6WqJ5rUopO2z71-LBIYI-18" edge="1">
          <mxGeometry width="50" height="50" relative="1" as="geometry">
            <mxPoint x="885" y="1146.5" as="sourcePoint" />
            <mxPoint x="925" y="1101.5" as="targetPoint" />
          </mxGeometry>
        </mxCell>
        <mxCell id="6WqJ5rUopO2z71-LBIYI-24" value="&lt;font style=&quot;font-size: 16px;&quot;&gt;&lt;b&gt;TREATMENT&lt;/b&gt;&lt;/font&gt;" style="rounded=0;whiteSpace=wrap;html=1;strokeColor=#4C801A;strokeWidth=2;fontFamily=Times New Roman;" parent="1" vertex="1">
          <mxGeometry x="567" y="828" width="120" height="60" as="geometry" />
        </mxCell>
        <mxCell id="6WqJ5rUopO2z71-LBIYI-25" value="&lt;span style=&quot;font-size: 5px;&quot;&gt;&lt;b&gt;description&lt;/b&gt;&lt;/span&gt;" style="ellipse;whiteSpace=wrap;html=1;direction=west;strokeColor=#4C801A;strokeWidth=2;fontFamily=Times New Roman;" parent="1" vertex="1">
          <mxGeometry x="549" y="969" width="80" height="30" as="geometry" />
        </mxCell>
        <mxCell id="6WqJ5rUopO2z71-LBIYI-26" value="&lt;span style=&quot;font-size: 5px;&quot;&gt;&lt;b&gt;&lt;u&gt;treatment_id&lt;/u&gt;&lt;/b&gt;&lt;/span&gt;" style="ellipse;whiteSpace=wrap;html=1;strokeColor=#4C801A;strokeWidth=2;fontFamily=Times New Roman;" parent="1" vertex="1">
          <mxGeometry x="472" y="960" width="50" height="20" as="geometry" />
        </mxCell>
        <mxCell id="6WqJ5rUopO2z71-LBIYI-27" value="&lt;span style=&quot;font-size: 5px;&quot;&gt;&lt;b&gt;patient_id (Foreign Key)&lt;/b&gt;&lt;/span&gt;" style="ellipse;whiteSpace=wrap;html=1;direction=west;strokeColor=#4C801A;strokeWidth=2;fontFamily=Times New Roman;" parent="1" vertex="1">
          <mxGeometry x="708" y="954.5" width="80" height="31" as="geometry" />
        </mxCell>
        <mxCell id="6WqJ5rUopO2z71-LBIYI-28" value="" style="endArrow=none;html=1;rounded=0;exitX=0.5;exitY=1;exitDx=0;exitDy=0;entryX=0.611;entryY=0.963;entryDx=0;entryDy=0;entryPerimeter=0;strokeColor=#4C801A;strokeWidth=2;fontFamily=Times New Roman;" parent="1" source="6WqJ5rUopO2z71-LBIYI-24" target="6WqJ5rUopO2z71-LBIYI-27" edge="1">
          <mxGeometry width="50" height="50" relative="1" as="geometry">
            <mxPoint x="676" y="1002.5" as="sourcePoint" />
            <mxPoint x="656" y="957.5" as="targetPoint" />
          </mxGeometry>
        </mxCell>
        <mxCell id="6WqJ5rUopO2z71-LBIYI-29" value="" style="endArrow=none;html=1;rounded=0;exitX=0.5;exitY=1;exitDx=0;exitDy=0;entryX=0.5;entryY=0;entryDx=0;entryDy=0;strokeColor=#4C801A;strokeWidth=2;fontFamily=Times New Roman;" parent="1" source="6WqJ5rUopO2z71-LBIYI-24" target="6WqJ5rUopO2z71-LBIYI-26" edge="1">
          <mxGeometry width="50" height="50" relative="1" as="geometry">
            <mxPoint x="696" y="1022.5" as="sourcePoint" />
            <mxPoint x="576" y="1002.5" as="targetPoint" />
          </mxGeometry>
        </mxCell>
        <mxCell id="6WqJ5rUopO2z71-LBIYI-30" value="" style="endArrow=none;html=1;rounded=0;exitX=0.5;exitY=1;exitDx=0;exitDy=0;entryX=0.08;entryY=0.879;entryDx=0;entryDy=0;entryPerimeter=0;strokeColor=#4C801A;strokeWidth=2;fontFamily=Times New Roman;" parent="1" source="6WqJ5rUopO2z71-LBIYI-24" target="6WqJ5rUopO2z71-LBIYI-25" edge="1">
          <mxGeometry width="50" height="50" relative="1" as="geometry">
            <mxPoint x="776" y="1002.5" as="sourcePoint" />
            <mxPoint x="816" y="957.5" as="targetPoint" />
          </mxGeometry>
        </mxCell>
        <mxCell id="6WqJ5rUopO2z71-LBIYI-31" value="&lt;div style=&quot;&quot;&gt;&lt;span style=&quot;font-size: 16px;&quot;&gt;&lt;b&gt;Appointment&lt;/b&gt;&lt;/span&gt;&lt;br&gt;&lt;/div&gt;" style="rounded=0;whiteSpace=wrap;html=1;align=center;strokeColor=#4C801A;strokeWidth=2;fontFamily=Times New Roman;" parent="1" vertex="1">
          <mxGeometry x="522" y="492" width="150" height="60" as="geometry" />
        </mxCell>
        <mxCell id="6WqJ5rUopO2z71-LBIYI-32" value="&lt;span style=&quot;font-size: 5px;&quot;&gt;&lt;b&gt;time&lt;/b&gt;&lt;/span&gt;" style="ellipse;whiteSpace=wrap;html=1;strokeColor=#4C801A;strokeWidth=2;fontFamily=Times New Roman;" parent="1" vertex="1">
          <mxGeometry x="761" y="622.25" width="45" height="28" as="geometry" />
        </mxCell>
        <mxCell id="6WqJ5rUopO2z71-LBIYI-33" value="&lt;span style=&quot;font-size: 5px;&quot;&gt;&lt;b&gt;date&lt;/b&gt;&lt;/span&gt;" style="ellipse;whiteSpace=wrap;html=1;strokeColor=#4C801A;strokeWidth=2;fontFamily=Times New Roman;" parent="1" vertex="1">
          <mxGeometry x="695" y="645.25" width="60" height="20" as="geometry" />
        </mxCell>
        <mxCell id="6WqJ5rUopO2z71-LBIYI-34" value="&lt;span style=&quot;font-size: 5px;&quot;&gt;&lt;b&gt;doctor_id (Foreign Key)&lt;/b&gt;&lt;/span&gt;" style="ellipse;whiteSpace=wrap;html=1;strokeColor=#4C801A;strokeWidth=2;fontFamily=Times New Roman;" parent="1" vertex="1">
          <mxGeometry x="599" y="638.25" width="62" height="41.25" as="geometry" />
        </mxCell>
        <mxCell id="6WqJ5rUopO2z71-LBIYI-36" value="" style="endArrow=none;dashed=1;html=1;rounded=0;strokeColor=#4C801A;strokeWidth=2;fontFamily=Times New Roman;" parent="1" source="6WqJ5rUopO2z71-LBIYI-42" edge="1">
          <mxGeometry width="50" height="50" relative="1" as="geometry">
            <mxPoint x="540.5" y="650.71" as="sourcePoint" />
            <mxPoint x="570.5" y="650.71" as="targetPoint" />
          </mxGeometry>
        </mxCell>
        <mxCell id="6WqJ5rUopO2z71-LBIYI-37" value="" style="endArrow=none;html=1;rounded=0;exitX=0.5;exitY=1;exitDx=0;exitDy=0;entryX=0.5;entryY=0;entryDx=0;entryDy=0;strokeColor=#4C801A;strokeWidth=2;fontFamily=Times New Roman;" parent="1" source="6WqJ5rUopO2z71-LBIYI-31" target="6WqJ5rUopO2z71-LBIYI-138" edge="1">
          <mxGeometry width="50" height="50" relative="1" as="geometry">
            <mxPoint x="633" y="541" as="sourcePoint" />
            <mxPoint x="474" y="622.25" as="targetPoint" />
          </mxGeometry>
        </mxCell>
        <mxCell id="6WqJ5rUopO2z71-LBIYI-38" value="" style="endArrow=none;html=1;rounded=0;exitX=0.5;exitY=1;exitDx=0;exitDy=0;entryX=0.601;entryY=-0.02;entryDx=0;entryDy=0;entryPerimeter=0;strokeColor=#4C801A;strokeWidth=2;fontFamily=Times New Roman;" parent="1" source="6WqJ5rUopO2z71-LBIYI-31" target="6WqJ5rUopO2z71-LBIYI-42" edge="1">
          <mxGeometry width="50" height="50" relative="1" as="geometry">
            <mxPoint x="633" y="601" as="sourcePoint" />
            <mxPoint x="556" y="631" as="targetPoint" />
          </mxGeometry>
        </mxCell>
        <mxCell id="6WqJ5rUopO2z71-LBIYI-39" value="" style="endArrow=none;html=1;rounded=0;exitX=0.5;exitY=1;exitDx=0;exitDy=0;entryX=0.5;entryY=0;entryDx=0;entryDy=0;strokeColor=#4C801A;strokeWidth=2;fontFamily=Times New Roman;" parent="1" source="6WqJ5rUopO2z71-LBIYI-31" target="6WqJ5rUopO2z71-LBIYI-34" edge="1">
          <mxGeometry width="50" height="50" relative="1" as="geometry">
            <mxPoint x="633" y="601" as="sourcePoint" />
            <mxPoint x="566" y="641" as="targetPoint" />
          </mxGeometry>
        </mxCell>
        <mxCell id="6WqJ5rUopO2z71-LBIYI-40" value="" style="endArrow=none;html=1;rounded=0;exitX=0.5;exitY=1;exitDx=0;exitDy=0;entryX=0.5;entryY=0;entryDx=0;entryDy=0;strokeColor=#4C801A;strokeWidth=2;fontFamily=Times New Roman;" parent="1" source="6WqJ5rUopO2z71-LBIYI-31" target="6WqJ5rUopO2z71-LBIYI-33" edge="1">
          <mxGeometry width="50" height="50" relative="1" as="geometry">
            <mxPoint x="633" y="601" as="sourcePoint" />
            <mxPoint x="618" y="646" as="targetPoint" />
          </mxGeometry>
        </mxCell>
        <mxCell id="6WqJ5rUopO2z71-LBIYI-41" value="" style="endArrow=none;html=1;rounded=0;exitX=0.5;exitY=1;exitDx=0;exitDy=0;entryX=0.5;entryY=0;entryDx=0;entryDy=0;strokeColor=#4C801A;strokeWidth=2;fontFamily=Times New Roman;" parent="1" source="6WqJ5rUopO2z71-LBIYI-31" target="6WqJ5rUopO2z71-LBIYI-32" edge="1">
          <mxGeometry width="50" height="50" relative="1" as="geometry">
            <mxPoint x="633" y="601" as="sourcePoint" />
            <mxPoint x="704" y="611" as="targetPoint" />
          </mxGeometry>
        </mxCell>
        <mxCell id="6WqJ5rUopO2z71-LBIYI-43" value="" style="endArrow=none;dashed=1;html=1;rounded=0;strokeColor=#4C801A;strokeWidth=2;fontFamily=Times New Roman;" parent="1" target="6WqJ5rUopO2z71-LBIYI-42" edge="1">
          <mxGeometry width="50" height="50" relative="1" as="geometry">
            <mxPoint x="540.5" y="650.71" as="sourcePoint" />
            <mxPoint x="570.5" y="650.71" as="targetPoint" />
          </mxGeometry>
        </mxCell>
        <mxCell id="6WqJ5rUopO2z71-LBIYI-42" value="&lt;span style=&quot;font-size: 5px;&quot;&gt;&lt;b&gt;patient_id (Foreign Key)&lt;/b&gt;&lt;/span&gt;" style="ellipse;whiteSpace=wrap;html=1;strokeColor=#4C801A;strokeWidth=2;fontFamily=Times New Roman;" parent="1" vertex="1">
          <mxGeometry x="515" y="631" width="73" height="34.25" as="geometry" />
        </mxCell>
        <mxCell id="6WqJ5rUopO2z71-LBIYI-45" value="&lt;span style=&quot;font-size: 5px;&quot;&gt;&lt;b&gt;appointment_id (Foreign Key)&lt;/b&gt;&lt;/span&gt;" style="ellipse;whiteSpace=wrap;html=1;strokeColor=#4C801A;strokeWidth=2;fontFamily=Times New Roman;" parent="1" vertex="1">
          <mxGeometry x="1821" y="384" width="80" height="30" as="geometry" />
        </mxCell>
        <mxCell id="6WqJ5rUopO2z71-LBIYI-54" value="&lt;b&gt;&lt;font style=&quot;font-size: 16px;&quot;&gt;Medicine&lt;/font&gt;&lt;/b&gt;" style="rounded=0;whiteSpace=wrap;html=1;direction=west;strokeColor=#4C801A;strokeWidth=2;fontFamily=Times New Roman;" parent="1" vertex="1">
          <mxGeometry x="1186" y="1065" width="138" height="60" as="geometry" />
        </mxCell>
        <mxCell id="6WqJ5rUopO2z71-LBIYI-55" value="&lt;div&gt;&lt;span style=&quot;font-size: 5px;&quot;&gt;&lt;b&gt;&lt;u&gt;medicine_id (Medicine ID)&lt;/u&gt;&lt;/b&gt;&lt;/span&gt;&lt;br&gt;&lt;/div&gt;" style="ellipse;whiteSpace=wrap;html=1;direction=west;strokeColor=#4C801A;strokeWidth=2;fontFamily=Times New Roman;" parent="1" vertex="1">
          <mxGeometry x="1033" y="1137" width="105" height="55" as="geometry" />
        </mxCell>
        <mxCell id="6WqJ5rUopO2z71-LBIYI-56" value="&lt;span style=&quot;font-size: 5px;&quot;&gt;&lt;b&gt;price&lt;/b&gt;&lt;/span&gt;" style="ellipse;whiteSpace=wrap;html=1;direction=west;strokeColor=#4C801A;strokeWidth=2;fontFamily=Times New Roman;" parent="1" vertex="1">
          <mxGeometry x="1396" y="1165" width="70" height="40" as="geometry" />
        </mxCell>
        <mxCell id="6WqJ5rUopO2z71-LBIYI-57" value="&lt;span style=&quot;font-size: 5px;&quot;&gt;&lt;b&gt;name&lt;/b&gt;&lt;/span&gt;" style="ellipse;whiteSpace=wrap;html=1;direction=west;strokeColor=#4C801A;strokeWidth=2;fontFamily=Times New Roman;" parent="1" vertex="1">
          <mxGeometry x="1160" y="1188" width="72" height="38" as="geometry" />
        </mxCell>
        <mxCell id="6WqJ5rUopO2z71-LBIYI-58" value="" style="endArrow=none;html=1;rounded=0;exitX=0.5;exitY=0;exitDx=0;exitDy=0;entryX=0.611;entryY=0.963;entryDx=0;entryDy=0;entryPerimeter=0;strokeColor=#4C801A;strokeWidth=2;fontFamily=Times New Roman;" parent="1" source="6WqJ5rUopO2z71-LBIYI-54" target="6WqJ5rUopO2z71-LBIYI-57" edge="1">
          <mxGeometry width="50" height="50" relative="1" as="geometry">
            <mxPoint x="1196" y="1065" as="sourcePoint" />
            <mxPoint x="1176" y="1020" as="targetPoint" />
          </mxGeometry>
        </mxCell>
        <mxCell id="6WqJ5rUopO2z71-LBIYI-59" value="" style="endArrow=none;html=1;rounded=0;exitX=0.5;exitY=0;exitDx=0;exitDy=0;entryX=0.228;entryY=0.947;entryDx=0;entryDy=0;entryPerimeter=0;strokeColor=#4C801A;strokeWidth=2;fontFamily=Times New Roman;" parent="1" source="6WqJ5rUopO2z71-LBIYI-54" target="6WqJ5rUopO2z71-LBIYI-55" edge="1">
          <mxGeometry width="50" height="50" relative="1" as="geometry">
            <mxPoint x="1216" y="1085" as="sourcePoint" />
            <mxPoint x="1096" y="1065" as="targetPoint" />
          </mxGeometry>
        </mxCell>
        <mxCell id="6WqJ5rUopO2z71-LBIYI-60" value="" style="endArrow=none;html=1;rounded=0;exitX=0.5;exitY=0;exitDx=0;exitDy=0;entryX=0.5;entryY=0;entryDx=0;entryDy=0;strokeColor=#4C801A;strokeWidth=2;fontFamily=Times New Roman;" parent="1" source="6WqJ5rUopO2z71-LBIYI-54" target="6WqJ5rUopO2z71-LBIYI-62" edge="1">
          <mxGeometry width="50" height="50" relative="1" as="geometry">
            <mxPoint x="1296" y="1065" as="sourcePoint" />
            <mxPoint x="1336" y="1020" as="targetPoint" />
          </mxGeometry>
        </mxCell>
        <mxCell id="6WqJ5rUopO2z71-LBIYI-61" value="" style="endArrow=none;html=1;rounded=0;exitX=0.5;exitY=0;exitDx=0;exitDy=0;entryX=0.5;entryY=1;entryDx=0;entryDy=0;strokeColor=#4C801A;strokeWidth=2;fontFamily=Times New Roman;" parent="1" source="6WqJ5rUopO2z71-LBIYI-54" target="6WqJ5rUopO2z71-LBIYI-56" edge="1">
          <mxGeometry width="50" height="50" relative="1" as="geometry">
            <mxPoint x="1306" y="1102.5" as="sourcePoint" />
            <mxPoint x="1346" y="1057.5" as="targetPoint" />
          </mxGeometry>
        </mxCell>
        <mxCell id="6WqJ5rUopO2z71-LBIYI-62" value="&lt;span style=&quot;font-size: 5px;&quot;&gt;&lt;b&gt;dosage&lt;/b&gt;&lt;/span&gt;" style="ellipse;whiteSpace=wrap;html=1;strokeColor=#4C801A;strokeWidth=2;fontFamily=Times New Roman;" parent="1" vertex="1">
          <mxGeometry x="1309" y="1200" width="80" height="30" as="geometry" />
        </mxCell>
        <mxCell id="6WqJ5rUopO2z71-LBIYI-65" value="&lt;font style=&quot;font-size: 16px;&quot;&gt;&lt;b&gt;USER&lt;/b&gt;&lt;/font&gt;" style="rounded=0;whiteSpace=wrap;html=1;strokeColor=#4C801A;strokeWidth=2;fontFamily=Times New Roman;" parent="1" vertex="1">
          <mxGeometry x="2003" y="964" width="120" height="60" as="geometry" />
        </mxCell>
        <mxCell id="6WqJ5rUopO2z71-LBIYI-66" value="&lt;span style=&quot;font-size: 5px;&quot;&gt;&lt;b&gt;role&lt;/b&gt;&lt;/span&gt;" style="ellipse;whiteSpace=wrap;html=1;strokeColor=#4C801A;strokeWidth=2;fontFamily=Times New Roman;" parent="1" vertex="1">
          <mxGeometry x="2191" y="1014" width="80" height="30" as="geometry" />
        </mxCell>
        <mxCell id="6WqJ5rUopO2z71-LBIYI-67" value="&lt;span style=&quot;font-size: 5px;&quot;&gt;&lt;b&gt;&lt;u&gt;username&lt;/u&gt;&lt;/b&gt;&lt;/span&gt;" style="ellipse;whiteSpace=wrap;html=1;strokeColor=#4C801A;strokeWidth=2;fontFamily=Times New Roman;" parent="1" vertex="1">
          <mxGeometry x="2214" y="913" width="50" height="20" as="geometry" />
        </mxCell>
        <mxCell id="6WqJ5rUopO2z71-LBIYI-68" value="&lt;span style=&quot;font-size: 5px;&quot;&gt;&lt;b&gt;&lt;u&gt;password&lt;/u&gt;&lt;/b&gt;&lt;/span&gt;" style="ellipse;whiteSpace=wrap;html=1;strokeColor=#4C801A;strokeWidth=2;fontFamily=Times New Roman;" parent="1" vertex="1">
          <mxGeometry x="2217" y="965.5" width="60" height="20" as="geometry" />
        </mxCell>
        <mxCell id="6WqJ5rUopO2z71-LBIYI-69" value="" style="endArrow=none;html=1;rounded=0;exitX=1;exitY=0.5;exitDx=0;exitDy=0;entryX=0.611;entryY=0.963;entryDx=0;entryDy=0;entryPerimeter=0;strokeColor=#4C801A;strokeWidth=2;fontFamily=Times New Roman;" parent="1" source="6WqJ5rUopO2z71-LBIYI-65" target="6WqJ5rUopO2z71-LBIYI-68" edge="1">
          <mxGeometry width="50" height="50" relative="1" as="geometry">
            <mxPoint x="2237" y="946.5" as="sourcePoint" />
            <mxPoint x="2217" y="901.5" as="targetPoint" />
          </mxGeometry>
        </mxCell>
        <mxCell id="6WqJ5rUopO2z71-LBIYI-70" value="" style="endArrow=none;html=1;rounded=0;exitX=1;exitY=0.5;exitDx=0;exitDy=0;entryX=0;entryY=0.5;entryDx=0;entryDy=0;strokeColor=#4C801A;strokeWidth=2;fontFamily=Times New Roman;" parent="1" source="6WqJ5rUopO2z71-LBIYI-65" target="6WqJ5rUopO2z71-LBIYI-67" edge="1">
          <mxGeometry width="50" height="50" relative="1" as="geometry">
            <mxPoint x="2257" y="966.5" as="sourcePoint" />
            <mxPoint x="2137" y="946.5" as="targetPoint" />
          </mxGeometry>
        </mxCell>
        <mxCell id="6WqJ5rUopO2z71-LBIYI-71" value="" style="endArrow=none;html=1;rounded=0;exitX=1;exitY=0.5;exitDx=0;exitDy=0;entryX=0.08;entryY=0.879;entryDx=0;entryDy=0;entryPerimeter=0;strokeColor=#4C801A;strokeWidth=2;fontFamily=Times New Roman;" parent="1" source="6WqJ5rUopO2z71-LBIYI-65" target="6WqJ5rUopO2z71-LBIYI-66" edge="1">
          <mxGeometry width="50" height="50" relative="1" as="geometry">
            <mxPoint x="2337" y="946.5" as="sourcePoint" />
            <mxPoint x="2377" y="901.5" as="targetPoint" />
          </mxGeometry>
        </mxCell>
        <mxCell id="6WqJ5rUopO2z71-LBIYI-72" value="&lt;b&gt;&lt;font style=&quot;font-size: 5px;&quot;&gt;Specialty&lt;/font&gt;&lt;/b&gt;" style="ellipse;whiteSpace=wrap;html=1;strokeColor=#4C801A;strokeWidth=2;fontFamily=Times New Roman;" parent="1" vertex="1">
          <mxGeometry x="1373.5" y="593" width="70" height="30" as="geometry" />
        </mxCell>
        <mxCell id="6WqJ5rUopO2z71-LBIYI-73" value="" style="endArrow=none;html=1;rounded=0;entryX=0.289;entryY=0.913;entryDx=0;entryDy=0;entryPerimeter=0;exitX=0.5;exitY=0;exitDx=0;exitDy=0;strokeColor=#4C801A;strokeWidth=2;fontFamily=Times New Roman;" parent="1" source="PI-kocEEDLTnwSgOIh5O-84" target="6WqJ5rUopO2z71-LBIYI-72" edge="1">
          <mxGeometry width="50" height="50" relative="1" as="geometry">
            <mxPoint x="1335.5" y="683" as="sourcePoint" />
            <mxPoint x="1426.5" y="642.5" as="targetPoint" />
          </mxGeometry>
        </mxCell>
        <mxCell id="6WqJ5rUopO2z71-LBIYI-79" value="&lt;b&gt;Allocated&lt;/b&gt;" style="rhombus;whiteSpace=wrap;html=1;strokeColor=#4C801A;strokeWidth=2;fontFamily=Times New Roman;" parent="1" vertex="1">
          <mxGeometry x="1542" y="201" width="80" height="80" as="geometry" />
        </mxCell>
        <mxCell id="6WqJ5rUopO2z71-LBIYI-82" value="" style="endArrow=none;html=1;rounded=0;entryX=1;entryY=0.5;entryDx=0;entryDy=0;exitX=1;exitY=0.5;exitDx=0;exitDy=0;strokeColor=#4C801A;strokeWidth=2;fontFamily=Times New Roman;" parent="1" source="6WqJ5rUopO2z71-LBIYI-79" target="6WqJ5rUopO2z71-LBIYI-44" edge="1">
          <mxGeometry width="50" height="50" relative="1" as="geometry">
            <mxPoint x="1695" y="239" as="sourcePoint" />
            <mxPoint x="1745" y="189" as="targetPoint" />
          </mxGeometry>
        </mxCell>
        <mxCell id="6WqJ5rUopO2z71-LBIYI-83" value="" style="endArrow=none;html=1;rounded=0;entryX=0;entryY=0.5;entryDx=0;entryDy=0;exitX=1;exitY=0.5;exitDx=0;exitDy=0;strokeColor=#4C801A;strokeWidth=2;fontFamily=Times New Roman;" parent="1" source="PI-kocEEDLTnwSgOIh5O-1" target="6WqJ5rUopO2z71-LBIYI-79" edge="1">
          <mxGeometry width="50" height="50" relative="1" as="geometry">
            <mxPoint x="1257" y="239.89" as="sourcePoint" />
            <mxPoint x="1564" y="239.89" as="targetPoint" />
          </mxGeometry>
        </mxCell>
        <mxCell id="6WqJ5rUopO2z71-LBIYI-84" value="&lt;span style=&quot;font-size: 5px;&quot;&gt;&lt;b&gt;Doctor Type&lt;/b&gt;&lt;/span&gt;" style="ellipse;whiteSpace=wrap;html=1;strokeColor=#4C801A;strokeWidth=2;fontFamily=Times New Roman;" parent="1" vertex="1">
          <mxGeometry x="1445.5" y="612.5" width="70" height="40" as="geometry" />
        </mxCell>
        <mxCell id="6WqJ5rUopO2z71-LBIYI-85" value="" style="endArrow=none;html=1;rounded=0;exitX=0.5;exitY=0;exitDx=0;exitDy=0;entryX=0.019;entryY=0.584;entryDx=0;entryDy=0;entryPerimeter=0;strokeColor=#4C801A;strokeWidth=2;fontFamily=Times New Roman;" parent="1" source="PI-kocEEDLTnwSgOIh5O-84" target="6WqJ5rUopO2z71-LBIYI-84" edge="1">
          <mxGeometry width="50" height="50" relative="1" as="geometry">
            <mxPoint x="1338.5" y="667.5" as="sourcePoint" />
            <mxPoint x="1441.5" y="663" as="targetPoint" />
          </mxGeometry>
        </mxCell>
        <mxCell id="6WqJ5rUopO2z71-LBIYI-97" value="&lt;b&gt;Assigned&lt;/b&gt;" style="rhombus;whiteSpace=wrap;html=1;strokeColor=#4C801A;strokeWidth=2;fontFamily=Times New Roman;" parent="1" vertex="1">
          <mxGeometry x="1160" y="423" width="80" height="80" as="geometry" />
        </mxCell>
        <mxCell id="6WqJ5rUopO2z71-LBIYI-98" value="" style="endArrow=none;html=1;rounded=0;entryX=0;entryY=0.5;entryDx=0;entryDy=0;exitX=0.5;exitY=1;exitDx=0;exitDy=0;edgeStyle=elbowEdgeStyle;strokeColor=#4C801A;strokeWidth=2;fontFamily=Times New Roman;" parent="1" source="6WqJ5rUopO2z71-LBIYI-97" target="PI-kocEEDLTnwSgOIh5O-84" edge="1">
          <mxGeometry width="50" height="50" relative="1" as="geometry">
            <mxPoint x="1320" y="467" as="sourcePoint" />
            <mxPoint x="1554" y="469" as="targetPoint" />
            <Array as="points">
              <mxPoint x="1050" y="756" />
            </Array>
          </mxGeometry>
        </mxCell>
        <mxCell id="6WqJ5rUopO2z71-LBIYI-99" value="" style="endArrow=none;html=1;rounded=0;entryX=0.5;entryY=0;entryDx=0;entryDy=0;exitX=0.5;exitY=1;exitDx=0;exitDy=0;strokeColor=#4C801A;strokeWidth=2;fontFamily=Times New Roman;" parent="1" source="PI-kocEEDLTnwSgOIh5O-1" target="6WqJ5rUopO2z71-LBIYI-97" edge="1">
          <mxGeometry width="50" height="50" relative="1" as="geometry">
            <mxPoint x="882" y="468" as="sourcePoint" />
            <mxPoint x="1189" y="467.89" as="targetPoint" />
          </mxGeometry>
        </mxCell>
        <mxCell id="6WqJ5rUopO2z71-LBIYI-109" value="" style="endArrow=none;html=1;rounded=0;entryX=1;entryY=0.5;entryDx=0;entryDy=0;exitX=0;exitY=0.5;exitDx=0;exitDy=0;edgeStyle=orthogonalEdgeStyle;strokeColor=#4C801A;strokeWidth=2;fontFamily=Times New Roman;" parent="1" source="PI-kocEEDLTnwSgOIh5O-112" target="gBbXwUMIxRK3NuY3_ltT-145" edge="1">
          <mxGeometry width="50" height="50" relative="1" as="geometry">
            <mxPoint x="1992" y="612" as="sourcePoint" />
            <mxPoint x="2147" y="539" as="targetPoint" />
          </mxGeometry>
        </mxCell>
        <mxCell id="6WqJ5rUopO2z71-LBIYI-111" value="" style="endArrow=none;html=1;rounded=0;entryX=1;entryY=0.5;entryDx=0;entryDy=0;exitX=0.075;exitY=0.481;exitDx=0;exitDy=0;edgeStyle=orthogonalEdgeStyle;strokeColor=#4C801A;strokeWidth=2;fontFamily=Times New Roman;exitPerimeter=0;" parent="1" source="gBbXwUMIxRK3NuY3_ltT-145" target="PI-kocEEDLTnwSgOIh5O-84" edge="1">
          <mxGeometry width="50" height="50" relative="1" as="geometry">
            <mxPoint x="2067" y="539" as="sourcePoint" />
            <mxPoint x="1863" y="696" as="targetPoint" />
          </mxGeometry>
        </mxCell>
        <mxCell id="6WqJ5rUopO2z71-LBIYI-135" value="&lt;b style=&quot;&quot;&gt;Books&lt;/b&gt;" style="rhombus;whiteSpace=wrap;html=1;strokeColor=#4C801A;strokeWidth=2;fontFamily=Times New Roman;" parent="1" vertex="1">
          <mxGeometry x="681" y="264" width="80" height="80" as="geometry" />
        </mxCell>
        <mxCell id="6WqJ5rUopO2z71-LBIYI-136" value="" style="endArrow=none;html=1;rounded=0;exitX=1;exitY=0.5;exitDx=0;exitDy=0;entryX=0;entryY=0.5;entryDx=0;entryDy=0;edgeStyle=elbowEdgeStyle;elbow=vertical;strokeColor=#4C801A;strokeWidth=2;fontFamily=Times New Roman;" parent="1" source="6WqJ5rUopO2z71-LBIYI-135" target="PI-kocEEDLTnwSgOIh5O-1" edge="1">
          <mxGeometry width="50" height="50" relative="1" as="geometry">
            <mxPoint x="867" y="314" as="sourcePoint" />
            <mxPoint x="1110.0000000000005" y="231" as="targetPoint" />
            <Array as="points">
              <mxPoint x="1008" y="231" />
            </Array>
          </mxGeometry>
        </mxCell>
        <mxCell id="6WqJ5rUopO2z71-LBIYI-137" value="" style="endArrow=none;html=1;rounded=0;entryX=0;entryY=0.5;entryDx=0;entryDy=0;edgeStyle=elbowEdgeStyle;elbow=vertical;exitX=0.5;exitY=0;exitDx=0;exitDy=0;strokeColor=#4C801A;strokeWidth=2;fontFamily=Times New Roman;" parent="1" source="6WqJ5rUopO2z71-LBIYI-31" target="6WqJ5rUopO2z71-LBIYI-135" edge="1">
          <mxGeometry width="50" height="50" relative="1" as="geometry">
            <mxPoint x="576" y="321" as="sourcePoint" />
            <mxPoint x="736" y="314.8899999999999" as="targetPoint" />
          </mxGeometry>
        </mxCell>
        <mxCell id="6WqJ5rUopO2z71-LBIYI-138" value="&lt;span style=&quot;font-size: 5px;&quot;&gt;&lt;b&gt;&lt;u&gt;appointment_id (Appointment ID)&lt;/u&gt;&lt;/b&gt;&lt;/span&gt;" style="ellipse;whiteSpace=wrap;html=1;strokeColor=#4C801A;strokeWidth=2;fontFamily=Times New Roman;" parent="1" vertex="1">
          <mxGeometry x="384" y="634.87" width="92" height="24.25" as="geometry" />
        </mxCell>
        <mxCell id="6WqJ5rUopO2z71-LBIYI-140" value="&lt;em&gt;Attends&lt;/em&gt;" style="rhombus;whiteSpace=wrap;html=1;strokeColor=#4C801A;strokeWidth=2;fontFamily=Times New Roman;" parent="1" vertex="1">
          <mxGeometry x="867" y="417" width="80" height="80" as="geometry" />
        </mxCell>
        <mxCell id="6WqJ5rUopO2z71-LBIYI-141" value="" style="endArrow=none;html=1;rounded=0;exitX=1;exitY=0.5;exitDx=0;exitDy=0;entryX=0;entryY=0.75;entryDx=0;entryDy=0;edgeStyle=elbowEdgeStyle;strokeColor=#4C801A;strokeWidth=2;fontFamily=Times New Roman;" parent="1" source="6WqJ5rUopO2z71-LBIYI-140" target="PI-kocEEDLTnwSgOIh5O-84" edge="1">
          <mxGeometry width="50" height="50" relative="1" as="geometry">
            <mxPoint x="966" y="761" as="sourcePoint" />
            <mxPoint x="1068" y="763" as="targetPoint" />
          </mxGeometry>
        </mxCell>
        <mxCell id="6WqJ5rUopO2z71-LBIYI-142" value="" style="endArrow=none;html=1;rounded=0;entryX=0;entryY=0.5;entryDx=0;entryDy=0;edgeStyle=elbowEdgeStyle;exitX=1;exitY=0.5;exitDx=0;exitDy=0;strokeColor=#4C801A;strokeWidth=2;fontFamily=Times New Roman;" parent="1" source="6WqJ5rUopO2z71-LBIYI-31" target="6WqJ5rUopO2z71-LBIYI-140" edge="1">
          <mxGeometry width="50" height="50" relative="1" as="geometry">
            <mxPoint x="675" y="768" as="sourcePoint" />
            <mxPoint x="835" y="761.8899999999999" as="targetPoint" />
          </mxGeometry>
        </mxCell>
        <mxCell id="6WqJ5rUopO2z71-LBIYI-144" value="&lt;b&gt;Conducts&amp;nbsp;&lt;/b&gt;" style="rhombus;whiteSpace=wrap;html=1;strokeColor=#4C801A;strokeWidth=2;fontFamily=Times New Roman;" parent="1" vertex="1">
          <mxGeometry x="819" y="765" width="80" height="80" as="geometry" />
        </mxCell>
        <mxCell id="6WqJ5rUopO2z71-LBIYI-145" value="" style="endArrow=none;html=1;rounded=0;exitX=1;exitY=0.5;exitDx=0;exitDy=0;entryX=0.25;entryY=1;entryDx=0;entryDy=0;edgeStyle=elbowEdgeStyle;elbow=vertical;strokeColor=#4C801A;strokeWidth=2;fontFamily=Times New Roman;" parent="1" source="6WqJ5rUopO2z71-LBIYI-144" target="PI-kocEEDLTnwSgOIh5O-84" edge="1">
          <mxGeometry width="50" height="50" relative="1" as="geometry">
            <mxPoint x="972" y="803" as="sourcePoint" />
            <mxPoint x="1074" y="805" as="targetPoint" />
          </mxGeometry>
        </mxCell>
        <mxCell id="6WqJ5rUopO2z71-LBIYI-146" value="" style="endArrow=none;html=1;rounded=0;entryX=0;entryY=0.5;entryDx=0;entryDy=0;edgeStyle=elbowEdgeStyle;elbow=vertical;exitX=0.5;exitY=0;exitDx=0;exitDy=0;strokeColor=#4C801A;strokeWidth=2;fontFamily=Times New Roman;" parent="1" source="6WqJ5rUopO2z71-LBIYI-24" target="6WqJ5rUopO2z71-LBIYI-144" edge="1">
          <mxGeometry width="50" height="50" relative="1" as="geometry">
            <mxPoint x="681" y="810" as="sourcePoint" />
            <mxPoint x="841" y="803.8899999999999" as="targetPoint" />
            <Array as="points">
              <mxPoint x="717" y="777" />
            </Array>
          </mxGeometry>
        </mxCell>
        <mxCell id="6WqJ5rUopO2z71-LBIYI-148" value="&lt;b&gt;Undergoes&amp;nbsp;&lt;/b&gt;" style="rhombus;whiteSpace=wrap;html=1;direction=south;strokeColor=#4C801A;strokeWidth=2;fontFamily=Times New Roman;" parent="1" vertex="1">
          <mxGeometry x="240" y="489" width="80" height="80" as="geometry" />
        </mxCell>
        <mxCell id="6WqJ5rUopO2z71-LBIYI-149" value="" style="endArrow=none;html=1;rounded=0;exitX=0;exitY=0.5;exitDx=0;exitDy=0;entryX=1;entryY=0.5;entryDx=0;entryDy=0;edgeStyle=elbowEdgeStyle;elbow=vertical;strokeColor=#4C801A;strokeWidth=2;fontFamily=Times New Roman;" parent="1" source="6WqJ5rUopO2z71-LBIYI-24" target="6WqJ5rUopO2z71-LBIYI-148" edge="1">
          <mxGeometry width="50" height="50" relative="1" as="geometry">
            <mxPoint x="495" y="529" as="sourcePoint" />
            <mxPoint x="393" y="527" as="targetPoint" />
            <Array as="points">
              <mxPoint x="429" y="867" />
            </Array>
          </mxGeometry>
        </mxCell>
        <mxCell id="6WqJ5rUopO2z71-LBIYI-150" value="" style="endArrow=none;html=1;rounded=0;entryX=0.25;entryY=1;entryDx=0;entryDy=0;exitX=0;exitY=0.5;exitDx=0;exitDy=0;edgeStyle=elbowEdgeStyle;elbow=vertical;strokeColor=#4C801A;strokeWidth=2;fontFamily=Times New Roman;" parent="1" source="6WqJ5rUopO2z71-LBIYI-148" target="PI-kocEEDLTnwSgOIh5O-1" edge="1">
          <mxGeometry width="50" height="50" relative="1" as="geometry">
            <mxPoint x="262" y="527.8899999999999" as="sourcePoint" />
            <mxPoint x="102" y="534" as="targetPoint" />
          </mxGeometry>
        </mxCell>
        <mxCell id="6WqJ5rUopO2z71-LBIYI-153" value="&lt;b&gt;Uses&lt;/b&gt;" style="rhombus;whiteSpace=wrap;html=1;strokeColor=#4C801A;strokeWidth=2;fontFamily=Times New Roman;" parent="1" vertex="1">
          <mxGeometry x="2031" y="204" width="80" height="80" as="geometry" />
        </mxCell>
        <mxCell id="6WqJ5rUopO2z71-LBIYI-154" value="" style="endArrow=none;html=1;rounded=0;exitX=1;exitY=0.5;exitDx=0;exitDy=0;entryX=0.5;entryY=1;entryDx=0;entryDy=0;edgeStyle=elbowEdgeStyle;elbow=vertical;strokeColor=#4C801A;strokeWidth=2;fontFamily=Times New Roman;" parent="1" source="6WqJ5rUopO2z71-LBIYI-153" target="PI-kocEEDLTnwSgOIh5O-103" edge="1">
          <mxGeometry width="50" height="50" relative="1" as="geometry">
            <mxPoint x="1824.5" y="548" as="sourcePoint" />
            <mxPoint x="2133.5" y="339" as="targetPoint" />
            <Array as="points">
              <mxPoint x="2148" y="240" />
            </Array>
          </mxGeometry>
        </mxCell>
        <mxCell id="6WqJ5rUopO2z71-LBIYI-155" value="" style="endArrow=none;html=1;rounded=0;entryX=0;entryY=0.5;entryDx=0;entryDy=0;exitX=0;exitY=0.5;exitDx=0;exitDy=0;edgeStyle=elbowEdgeStyle;elbow=vertical;strokeColor=#4C801A;strokeWidth=2;fontFamily=Times New Roman;" parent="1" source="gBbXwUMIxRK3NuY3_ltT-63" target="6WqJ5rUopO2z71-LBIYI-153" edge="1">
          <mxGeometry width="50" height="50" relative="1" as="geometry">
            <mxPoint x="1704.5" y="303" as="sourcePoint" />
            <mxPoint x="1693.5" y="548.8899999999999" as="targetPoint" />
          </mxGeometry>
        </mxCell>
        <mxCell id="6WqJ5rUopO2z71-LBIYI-160" value="&lt;b style=&quot;&quot;&gt;Includes&lt;span style=&quot;white-space: pre;&quot;&gt;&#x9;&lt;/span&gt;&lt;/b&gt;" style="rhombus;whiteSpace=wrap;html=1;strokeColor=#4C801A;strokeWidth=2;fontFamily=Times New Roman;" parent="1" vertex="1">
          <mxGeometry x="1578.5" y="472" width="80" height="80" as="geometry" />
        </mxCell>
        <mxCell id="6WqJ5rUopO2z71-LBIYI-161" value="" style="endArrow=none;html=1;rounded=0;exitX=1;exitY=0.5;exitDx=0;exitDy=0;edgeStyle=elbowEdgeStyle;elbow=vertical;entryX=0.5;entryY=1;entryDx=0;entryDy=0;strokeColor=#4C801A;strokeWidth=2;fontFamily=Times New Roman;" parent="1" source="6WqJ5rUopO2z71-LBIYI-160" target="6WqJ5rUopO2z71-LBIYI-6" edge="1">
          <mxGeometry width="50" height="50" relative="1" as="geometry">
            <mxPoint x="1806.5" y="639" as="sourcePoint" />
            <mxPoint x="1779" y="864" as="targetPoint" />
          </mxGeometry>
        </mxCell>
        <mxCell id="6WqJ5rUopO2z71-LBIYI-162" value="" style="endArrow=none;html=1;rounded=0;entryX=0;entryY=0.5;entryDx=0;entryDy=0;exitX=0.833;exitY=1.052;exitDx=0;exitDy=0;exitPerimeter=0;edgeStyle=elbowEdgeStyle;elbow=vertical;strokeColor=#4C801A;strokeWidth=2;fontFamily=Times New Roman;" parent="1" source="PI-kocEEDLTnwSgOIh5O-1" target="6WqJ5rUopO2z71-LBIYI-160" edge="1">
          <mxGeometry width="50" height="50" relative="1" as="geometry">
            <mxPoint x="1515.5" y="508" as="sourcePoint" />
            <mxPoint x="1675.5" y="639.8899999999999" as="targetPoint" />
          </mxGeometry>
        </mxCell>
        <mxCell id="6WqJ5rUopO2z71-LBIYI-166" value="&lt;b&gt;Covers&lt;/b&gt;" style="rhombus;whiteSpace=wrap;html=1;strokeColor=#4C801A;strokeWidth=2;fontFamily=Times New Roman;" parent="1" vertex="1">
          <mxGeometry x="1479" y="997" width="80" height="80" as="geometry" />
        </mxCell>
        <mxCell id="6WqJ5rUopO2z71-LBIYI-167" value="" style="endArrow=none;html=1;rounded=0;exitX=1;exitY=0.5;exitDx=0;exitDy=0;entryX=1;entryY=0.5;entryDx=0;entryDy=0;edgeStyle=elbowEdgeStyle;elbow=vertical;strokeColor=#4C801A;strokeWidth=2;fontFamily=Times New Roman;" parent="1" source="6WqJ5rUopO2z71-LBIYI-166" target="6WqJ5rUopO2z71-LBIYI-6" edge="1">
          <mxGeometry width="50" height="50" relative="1" as="geometry">
            <mxPoint x="1623" y="1184" as="sourcePoint" />
            <mxPoint x="1581" y="1056" as="targetPoint" />
            <Array as="points">
              <mxPoint x="1608" y="1053" />
            </Array>
          </mxGeometry>
        </mxCell>
        <mxCell id="6WqJ5rUopO2z71-LBIYI-168" value="" style="endArrow=none;html=1;rounded=0;entryX=0;entryY=0.5;entryDx=0;entryDy=0;exitX=0.5;exitY=1;exitDx=0;exitDy=0;edgeStyle=elbowEdgeStyle;elbow=vertical;strokeColor=#4C801A;strokeWidth=2;fontFamily=Times New Roman;" parent="1" source="6WqJ5rUopO2z71-LBIYI-54" target="6WqJ5rUopO2z71-LBIYI-166" edge="1">
          <mxGeometry width="50" height="50" relative="1" as="geometry">
            <mxPoint x="1288" y="954" as="sourcePoint" />
            <mxPoint x="1448" y="1085.8899999999999" as="targetPoint" />
            <Array as="points">
              <mxPoint x="1279" y="958" />
            </Array>
          </mxGeometry>
        </mxCell>
        <mxCell id="6WqJ5rUopO2z71-LBIYI-171" value="&lt;b&gt;Documents&lt;/b&gt;" style="rhombus;whiteSpace=wrap;html=1;strokeColor=#4C801A;strokeWidth=2;fontFamily=Times New Roman;" parent="1" vertex="1">
          <mxGeometry x="303" y="999" width="80" height="80" as="geometry" />
        </mxCell>
        <mxCell id="6WqJ5rUopO2z71-LBIYI-172" value="" style="endArrow=none;html=1;rounded=0;exitX=0.5;exitY=0;exitDx=0;exitDy=0;entryX=0;entryY=0.5;entryDx=0;entryDy=0;edgeStyle=orthogonalEdgeStyle;elbow=vertical;strokeColor=#4C801A;strokeWidth=2;fontFamily=Times New Roman;" parent="1" source="6WqJ5rUopO2z71-LBIYI-171" target="6WqJ5rUopO2z71-LBIYI-31" edge="1">
          <mxGeometry width="50" height="50" relative="1" as="geometry">
            <mxPoint x="834" y="1232" as="sourcePoint" />
            <mxPoint x="792" y="1104" as="targetPoint" />
          </mxGeometry>
        </mxCell>
        <mxCell id="6WqJ5rUopO2z71-LBIYI-173" value="" style="endArrow=none;html=1;rounded=0;entryX=0.5;entryY=1;entryDx=0;entryDy=0;exitX=0.25;exitY=1;exitDx=0;exitDy=0;edgeStyle=elbowEdgeStyle;elbow=vertical;strokeColor=#4C801A;strokeWidth=2;fontFamily=Times New Roman;" parent="1" source="6WqJ5rUopO2z71-LBIYI-15" target="6WqJ5rUopO2z71-LBIYI-171" edge="1">
          <mxGeometry width="50" height="50" relative="1" as="geometry">
            <mxPoint x="543" y="1101" as="sourcePoint" />
            <mxPoint x="703" y="1232.8899999999999" as="targetPoint" />
            <Array as="points">
              <mxPoint x="565" y="1204" />
            </Array>
          </mxGeometry>
        </mxCell>
        <mxCell id="gBbXwUMIxRK3NuY3_ltT-6" value="&lt;b&gt;Attendes&lt;/b&gt;" style="rhombus;whiteSpace=wrap;html=1;strokeColor=#4C801A;strokeWidth=2;fontFamily=Times New Roman;" vertex="1" parent="1">
          <mxGeometry x="1377" y="467" width="80" height="80" as="geometry" />
        </mxCell>
        <mxCell id="gBbXwUMIxRK3NuY3_ltT-7" value="" style="endArrow=none;html=1;rounded=0;exitX=1;exitY=0.5;exitDx=0;exitDy=0;entryX=0;entryY=0.75;entryDx=0;entryDy=0;edgeStyle=orthogonalEdgeStyle;elbow=vertical;strokeColor=#4C801A;strokeWidth=2;fontFamily=Times New Roman;" edge="1" parent="1" source="gBbXwUMIxRK3NuY3_ltT-6" target="PI-kocEEDLTnwSgOIh5O-112">
          <mxGeometry width="50" height="50" relative="1" as="geometry">
            <mxPoint x="1170.5" y="811" as="sourcePoint" />
            <mxPoint x="1496" y="421" as="targetPoint" />
            <Array as="points">
              <mxPoint x="1457" y="573" />
              <mxPoint x="1793" y="573" />
              <mxPoint x="1793" y="672" />
              <mxPoint x="2060" y="672" />
              <mxPoint x="2060" y="702" />
            </Array>
          </mxGeometry>
        </mxCell>
        <mxCell id="gBbXwUMIxRK3NuY3_ltT-8" value="" style="endArrow=none;html=1;rounded=0;entryX=0;entryY=0.5;entryDx=0;entryDy=0;exitX=1;exitY=0.75;exitDx=0;exitDy=0;edgeStyle=orthogonalEdgeStyle;elbow=vertical;strokeColor=#4C801A;strokeWidth=2;fontFamily=Times New Roman;" edge="1" parent="1" target="gBbXwUMIxRK3NuY3_ltT-6" source="6WqJ5rUopO2z71-LBIYI-31">
          <mxGeometry width="50" height="50" relative="1" as="geometry">
            <mxPoint x="1265" y="503" as="sourcePoint" />
            <mxPoint x="1039.5" y="811.8899999999999" as="targetPoint" />
          </mxGeometry>
        </mxCell>
        <mxCell id="gBbXwUMIxRK3NuY3_ltT-9" value="&lt;b&gt;maintain&lt;/b&gt;" style="rhombus;whiteSpace=wrap;html=1;strokeColor=#4C801A;strokeWidth=2;fontFamily=Times New Roman;" vertex="1" parent="1">
          <mxGeometry x="1833" y="794" width="80" height="80" as="geometry" />
        </mxCell>
        <mxCell id="gBbXwUMIxRK3NuY3_ltT-10" value="" style="endArrow=none;html=1;rounded=0;exitX=0.5;exitY=0;exitDx=0;exitDy=0;entryX=0.125;entryY=0.975;entryDx=0;entryDy=0;edgeStyle=orthogonalEdgeStyle;elbow=vertical;entryPerimeter=0;strokeColor=#4C801A;strokeWidth=2;fontFamily=Times New Roman;" edge="1" parent="1" source="gBbXwUMIxRK3NuY3_ltT-9" target="PI-kocEEDLTnwSgOIh5O-112">
          <mxGeometry width="50" height="50" relative="1" as="geometry">
            <mxPoint x="1833.5" y="1194" as="sourcePoint" />
            <mxPoint x="2159" y="804" as="targetPoint" />
            <Array as="points">
              <mxPoint x="1873" y="756" />
              <mxPoint x="2144" y="756" />
            </Array>
          </mxGeometry>
        </mxCell>
        <mxCell id="gBbXwUMIxRK3NuY3_ltT-11" value="" style="endArrow=none;html=1;rounded=0;entryX=0.5;entryY=1;entryDx=0;entryDy=0;exitX=0;exitY=0.5;exitDx=0;exitDy=0;edgeStyle=elbowEdgeStyle;elbow=vertical;strokeColor=#4C801A;strokeWidth=2;fontFamily=Times New Roman;" edge="1" parent="1" target="gBbXwUMIxRK3NuY3_ltT-9" source="6WqJ5rUopO2z71-LBIYI-65">
          <mxGeometry width="50" height="50" relative="1" as="geometry">
            <mxPoint x="1928" y="886" as="sourcePoint" />
            <mxPoint x="1702.5" y="1194.8899999999999" as="targetPoint" />
          </mxGeometry>
        </mxCell>
        <mxCell id="gBbXwUMIxRK3NuY3_ltT-13" value="&lt;b&gt;manages&lt;/b&gt;" style="rhombus;whiteSpace=wrap;html=1;strokeColor=#4C801A;strokeWidth=2;fontFamily=Times New Roman;" vertex="1" parent="1">
          <mxGeometry x="1790" y="521" width="80" height="80" as="geometry" />
        </mxCell>
        <mxCell id="gBbXwUMIxRK3NuY3_ltT-14" value="" style="endArrow=none;html=1;rounded=0;exitX=1;exitY=0.5;exitDx=0;exitDy=0;entryX=0;entryY=0.25;entryDx=0;entryDy=0;edgeStyle=orthogonalEdgeStyle;elbow=vertical;strokeColor=#4C801A;strokeWidth=2;fontFamily=Times New Roman;" edge="1" parent="1" source="gBbXwUMIxRK3NuY3_ltT-13" target="PI-kocEEDLTnwSgOIh5O-112">
          <mxGeometry width="50" height="50" relative="1" as="geometry">
            <mxPoint x="1583.5" y="865" as="sourcePoint" />
            <mxPoint x="1909" y="475" as="targetPoint" />
            <Array as="points">
              <mxPoint x="2000" y="561" />
              <mxPoint x="2000" y="657" />
              <mxPoint x="2111" y="657" />
              <mxPoint x="2111" y="672" />
            </Array>
          </mxGeometry>
        </mxCell>
        <mxCell id="gBbXwUMIxRK3NuY3_ltT-15" value="" style="endArrow=none;html=1;rounded=0;entryX=0;entryY=0.5;entryDx=0;entryDy=0;edgeStyle=orthogonalEdgeStyle;elbow=vertical;strokeColor=#4C801A;strokeWidth=2;fontFamily=Times New Roman;" edge="1" parent="1" target="gBbXwUMIxRK3NuY3_ltT-13">
          <mxGeometry width="50" height="50" relative="1" as="geometry">
            <mxPoint x="1730" y="992" as="sourcePoint" />
            <mxPoint x="1452.5" y="865.8899999999999" as="targetPoint" />
          </mxGeometry>
        </mxCell>
        <mxCell id="gBbXwUMIxRK3NuY3_ltT-16" value="&lt;b&gt;Provide&lt;/b&gt;" style="rhombus;whiteSpace=wrap;html=1;strokeColor=#4C801A;strokeWidth=2;fontFamily=Times New Roman;" vertex="1" parent="1">
          <mxGeometry x="1146" y="842" width="80" height="80" as="geometry" />
        </mxCell>
        <mxCell id="gBbXwUMIxRK3NuY3_ltT-17" value="" style="endArrow=none;html=1;rounded=0;exitX=1;exitY=0.5;exitDx=0;exitDy=0;entryX=0.5;entryY=1;entryDx=0;entryDy=0;edgeStyle=elbowEdgeStyle;elbow=vertical;strokeColor=#4C801A;strokeWidth=2;fontFamily=Times New Roman;" edge="1" parent="1" source="gBbXwUMIxRK3NuY3_ltT-16" target="PI-kocEEDLTnwSgOIh5O-112">
          <mxGeometry width="50" height="50" relative="1" as="geometry">
            <mxPoint x="925" y="1214" as="sourcePoint" />
            <mxPoint x="1250.5" y="824" as="targetPoint" />
            <Array as="points">
              <mxPoint x="1248.5" y="906" />
            </Array>
          </mxGeometry>
        </mxCell>
        <mxCell id="gBbXwUMIxRK3NuY3_ltT-18" value="" style="endArrow=none;html=1;rounded=0;entryX=0;entryY=0.5;entryDx=0;entryDy=0;edgeStyle=orthogonalEdgeStyle;elbow=vertical;exitX=1;exitY=0.25;exitDx=0;exitDy=0;strokeColor=#4C801A;strokeWidth=2;fontFamily=Times New Roman;" edge="1" parent="1" target="gBbXwUMIxRK3NuY3_ltT-16" source="6WqJ5rUopO2z71-LBIYI-24">
          <mxGeometry width="50" height="50" relative="1" as="geometry">
            <mxPoint x="697" y="858" as="sourcePoint" />
            <mxPoint x="794" y="1214.8899999999999" as="targetPoint" />
          </mxGeometry>
        </mxCell>
        <mxCell id="gBbXwUMIxRK3NuY3_ltT-21" value="&lt;b&gt;Documents&lt;/b&gt;" style="rhombus;whiteSpace=wrap;html=1;strokeColor=#4C801A;strokeWidth=2;fontFamily=Times New Roman;" vertex="1" parent="1">
          <mxGeometry x="855.5" y="888" width="80" height="80" as="geometry" />
        </mxCell>
        <mxCell id="gBbXwUMIxRK3NuY3_ltT-22" value="" style="endArrow=none;html=1;rounded=0;exitX=1;exitY=0.5;exitDx=0;exitDy=0;entryX=0;entryY=0;entryDx=0;entryDy=0;edgeStyle=orthogonalEdgeStyle;elbow=vertical;strokeColor=#4C801A;strokeWidth=2;fontFamily=Times New Roman;" edge="1" parent="1" source="gBbXwUMIxRK3NuY3_ltT-21" target="PI-kocEEDLTnwSgOIh5O-84">
          <mxGeometry width="50" height="50" relative="1" as="geometry">
            <mxPoint x="649" y="1232" as="sourcePoint" />
            <mxPoint x="974.5" y="842" as="targetPoint" />
            <Array as="points">
              <mxPoint x="1104" y="928" />
              <mxPoint x="1104" y="749" />
              <mxPoint x="1230" y="749" />
              <mxPoint x="1230" y="693" />
              <mxPoint x="1273" y="693" />
            </Array>
          </mxGeometry>
        </mxCell>
        <mxCell id="gBbXwUMIxRK3NuY3_ltT-23" value="" style="endArrow=none;html=1;rounded=0;entryX=0;entryY=0.5;entryDx=0;entryDy=0;exitX=0.5;exitY=0;exitDx=0;exitDy=0;edgeStyle=orthogonalEdgeStyle;elbow=vertical;strokeColor=#4C801A;strokeWidth=2;fontFamily=Times New Roman;" edge="1" parent="1" target="gBbXwUMIxRK3NuY3_ltT-21" source="6WqJ5rUopO2z71-LBIYI-15">
          <mxGeometry width="50" height="50" relative="1" as="geometry">
            <mxPoint x="743.5" y="924" as="sourcePoint" />
            <mxPoint x="518" y="1232.8899999999999" as="targetPoint" />
          </mxGeometry>
        </mxCell>
        <mxCell id="gBbXwUMIxRK3NuY3_ltT-24" value="&lt;b&gt;Charged&lt;/b&gt;" style="rhombus;whiteSpace=wrap;html=1;strokeColor=#4C801A;strokeWidth=2;fontFamily=Times New Roman;" vertex="1" parent="1">
          <mxGeometry x="1504.5" y="772" width="80" height="80" as="geometry" />
        </mxCell>
        <mxCell id="gBbXwUMIxRK3NuY3_ltT-25" value="" style="endArrow=none;html=1;rounded=0;exitX=1;exitY=0.5;exitDx=0;exitDy=0;entryX=1;entryY=0.75;entryDx=0;entryDy=0;edgeStyle=orthogonalEdgeStyle;elbow=vertical;strokeColor=#4C801A;strokeWidth=2;fontFamily=Times New Roman;" edge="1" parent="1" source="gBbXwUMIxRK3NuY3_ltT-24" target="6WqJ5rUopO2z71-LBIYI-6">
          <mxGeometry width="50" height="50" relative="1" as="geometry">
            <mxPoint x="1298" y="1116" as="sourcePoint" />
            <mxPoint x="1623.5" y="726" as="targetPoint" />
          </mxGeometry>
        </mxCell>
        <mxCell id="gBbXwUMIxRK3NuY3_ltT-26" value="" style="endArrow=none;html=1;rounded=0;entryX=0;entryY=0.5;entryDx=0;entryDy=0;exitX=1;exitY=0.75;exitDx=0;exitDy=0;edgeStyle=orthogonalEdgeStyle;elbow=vertical;strokeColor=#4C801A;strokeWidth=2;fontFamily=Times New Roman;" edge="1" parent="1" target="gBbXwUMIxRK3NuY3_ltT-24" source="6WqJ5rUopO2z71-LBIYI-24">
          <mxGeometry width="50" height="50" relative="1" as="geometry">
            <mxPoint x="1392.5" y="808" as="sourcePoint" />
            <mxPoint x="1167" y="1116.8899999999999" as="targetPoint" />
            <Array as="points">
              <mxPoint x="687" y="858" />
              <mxPoint x="1096" y="858" />
              <mxPoint x="1096" y="812" />
            </Array>
          </mxGeometry>
        </mxCell>
        <mxCell id="gBbXwUMIxRK3NuY3_ltT-27" value="&lt;b&gt;Allocates&lt;span style=&quot;white-space: pre;&quot;&gt;&#x9;&lt;/span&gt;&lt;/b&gt;" style="rhombus;whiteSpace=wrap;html=1;strokeColor=#4C801A;strokeWidth=2;fontFamily=Times New Roman;" vertex="1" parent="1">
          <mxGeometry x="2178" y="332" width="128" height="80" as="geometry" />
        </mxCell>
        <mxCell id="gBbXwUMIxRK3NuY3_ltT-28" value="" style="endArrow=none;html=1;rounded=0;exitX=0.5;exitY=0;exitDx=0;exitDy=0;edgeStyle=orthogonalEdgeStyle;elbow=vertical;entryX=1;entryY=0.5;entryDx=0;entryDy=0;strokeColor=#4C801A;strokeWidth=2;fontFamily=Times New Roman;" edge="1" parent="1" source="gBbXwUMIxRK3NuY3_ltT-27" target="PI-kocEEDLTnwSgOIh5O-103">
          <mxGeometry width="50" height="50" relative="1" as="geometry">
            <mxPoint x="1985.5" y="876" as="sourcePoint" />
            <mxPoint x="2347" y="354" as="targetPoint" />
          </mxGeometry>
        </mxCell>
        <mxCell id="gBbXwUMIxRK3NuY3_ltT-29" value="" style="endArrow=none;html=1;rounded=0;entryX=0.5;entryY=1;entryDx=0;entryDy=0;edgeStyle=orthogonalEdgeStyle;elbow=vertical;exitX=0.75;exitY=0;exitDx=0;exitDy=0;strokeColor=#4C801A;strokeWidth=2;fontFamily=Times New Roman;" edge="1" parent="1" target="gBbXwUMIxRK3NuY3_ltT-27" source="PI-kocEEDLTnwSgOIh5O-112">
          <mxGeometry width="50" height="50" relative="1" as="geometry">
            <mxPoint x="2099" y="372" as="sourcePoint" />
            <mxPoint x="1854.5" y="876.8899999999999" as="targetPoint" />
            <Array as="points">
              <mxPoint x="2471" y="502" />
              <mxPoint x="2391" y="502" />
              <mxPoint x="2391" y="505" />
              <mxPoint x="2242" y="505" />
            </Array>
          </mxGeometry>
        </mxCell>
        <mxCell id="gBbXwUMIxRK3NuY3_ltT-34" value="&lt;b&gt;contain&lt;/b&gt;" style="rhombus;whiteSpace=wrap;html=1;strokeColor=#4C801A;strokeWidth=2;fontFamily=Times New Roman;" vertex="1" parent="1">
          <mxGeometry x="926" y="944" width="80" height="80" as="geometry" />
        </mxCell>
        <mxCell id="gBbXwUMIxRK3NuY3_ltT-35" value="" style="endArrow=none;html=1;rounded=0;exitX=1;exitY=0.5;exitDx=0;exitDy=0;entryX=1;entryY=0.5;entryDx=0;entryDy=0;edgeStyle=orthogonalEdgeStyle;elbow=vertical;strokeColor=#4C801A;strokeWidth=2;fontFamily=Times New Roman;" edge="1" parent="1" source="gBbXwUMIxRK3NuY3_ltT-34" target="6WqJ5rUopO2z71-LBIYI-54">
          <mxGeometry width="50" height="50" relative="1" as="geometry">
            <mxPoint x="719.5" y="1288" as="sourcePoint" />
            <mxPoint x="1045" y="898" as="targetPoint" />
          </mxGeometry>
        </mxCell>
        <mxCell id="gBbXwUMIxRK3NuY3_ltT-36" value="" style="endArrow=none;html=1;rounded=0;entryX=0;entryY=0.5;entryDx=0;entryDy=0;exitX=1;exitY=0.75;exitDx=0;exitDy=0;edgeStyle=orthogonalEdgeStyle;elbow=vertical;strokeColor=#4C801A;strokeWidth=2;fontFamily=Times New Roman;" edge="1" parent="1" target="gBbXwUMIxRK3NuY3_ltT-34" source="6WqJ5rUopO2z71-LBIYI-24">
          <mxGeometry width="50" height="50" relative="1" as="geometry">
            <mxPoint x="814" y="980" as="sourcePoint" />
            <mxPoint x="588.5" y="1288.8899999999999" as="targetPoint" />
            <Array as="points">
              <mxPoint x="709" y="873" />
              <mxPoint x="709" y="898" />
              <mxPoint x="807" y="898" />
              <mxPoint x="807" y="984" />
            </Array>
          </mxGeometry>
        </mxCell>
        <mxCell id="gBbXwUMIxRK3NuY3_ltT-37" value="&lt;b&gt;describe&lt;/b&gt;" style="rhombus;whiteSpace=wrap;html=1;strokeColor=#4C801A;strokeWidth=2;fontFamily=Times New Roman;" vertex="1" parent="1">
          <mxGeometry x="508" y="1074" width="80" height="80" as="geometry" />
        </mxCell>
        <mxCell id="gBbXwUMIxRK3NuY3_ltT-38" value="" style="endArrow=none;html=1;rounded=0;exitX=1;exitY=0.5;exitDx=0;exitDy=0;entryX=0;entryY=0.5;entryDx=0;entryDy=0;edgeStyle=orthogonalEdgeStyle;elbow=vertical;strokeColor=#4C801A;strokeWidth=2;fontFamily=Times New Roman;" edge="1" parent="1" source="gBbXwUMIxRK3NuY3_ltT-37" target="6WqJ5rUopO2z71-LBIYI-15">
          <mxGeometry width="50" height="50" relative="1" as="geometry">
            <mxPoint x="301.5" y="1418" as="sourcePoint" />
            <mxPoint x="627" y="1028" as="targetPoint" />
          </mxGeometry>
        </mxCell>
        <mxCell id="gBbXwUMIxRK3NuY3_ltT-39" value="" style="endArrow=none;html=1;rounded=0;entryX=0;entryY=0.5;entryDx=0;entryDy=0;exitX=0;exitY=0.25;exitDx=0;exitDy=0;edgeStyle=orthogonalEdgeStyle;elbow=vertical;strokeColor=#4C801A;strokeWidth=2;fontFamily=Times New Roman;" edge="1" parent="1" target="gBbXwUMIxRK3NuY3_ltT-37" source="6WqJ5rUopO2z71-LBIYI-24">
          <mxGeometry width="50" height="50" relative="1" as="geometry">
            <mxPoint x="396" y="1110" as="sourcePoint" />
            <mxPoint x="170.5" y="1418.8899999999999" as="targetPoint" />
            <Array as="points">
              <mxPoint x="532" y="843" />
              <mxPoint x="532" y="818" />
              <mxPoint x="437" y="818" />
              <mxPoint x="437" y="1114" />
            </Array>
          </mxGeometry>
        </mxCell>
        <mxCell id="gBbXwUMIxRK3NuY3_ltT-45" value="&lt;b&gt;Prescribes&lt;/b&gt;" style="rhombus;whiteSpace=wrap;html=1;strokeColor=#4C801A;strokeWidth=2;fontFamily=Times New Roman;" vertex="1" parent="1">
          <mxGeometry x="1344" y="811" width="80" height="80" as="geometry" />
        </mxCell>
        <mxCell id="gBbXwUMIxRK3NuY3_ltT-46" value="" style="endArrow=none;html=1;rounded=0;exitX=0.5;exitY=0;exitDx=0;exitDy=0;entryX=0.5;entryY=1;entryDx=0;entryDy=0;edgeStyle=elbowEdgeStyle;elbow=vertical;strokeColor=#4C801A;strokeWidth=2;fontFamily=Times New Roman;" edge="1" parent="1" source="gBbXwUMIxRK3NuY3_ltT-45" target="PI-kocEEDLTnwSgOIh5O-84">
          <mxGeometry width="50" height="50" relative="1" as="geometry">
            <mxPoint x="1137.5" y="1155" as="sourcePoint" />
            <mxPoint x="1463" y="765" as="targetPoint" />
            <Array as="points" />
          </mxGeometry>
        </mxCell>
        <mxCell id="gBbXwUMIxRK3NuY3_ltT-47" value="" style="endArrow=none;html=1;rounded=0;entryX=0.5;entryY=1;entryDx=0;entryDy=0;exitX=0.25;exitY=1;exitDx=0;exitDy=0;edgeStyle=elbowEdgeStyle;elbow=vertical;strokeColor=#4C801A;strokeWidth=2;fontFamily=Times New Roman;" edge="1" parent="1" target="gBbXwUMIxRK3NuY3_ltT-45" source="6WqJ5rUopO2z71-LBIYI-54">
          <mxGeometry width="50" height="50" relative="1" as="geometry">
            <mxPoint x="1232" y="847" as="sourcePoint" />
            <mxPoint x="1006.5" y="1155.8899999999999" as="targetPoint" />
          </mxGeometry>
        </mxCell>
        <mxCell id="gBbXwUMIxRK3NuY3_ltT-50" value="&lt;b&gt;maintained&lt;/b&gt;" style="rhombus;whiteSpace=wrap;html=1;strokeColor=#4C801A;strokeWidth=2;fontFamily=Times New Roman;" vertex="1" parent="1">
          <mxGeometry x="1748" y="1185" width="80" height="80" as="geometry" />
        </mxCell>
        <mxCell id="gBbXwUMIxRK3NuY3_ltT-51" value="" style="endArrow=none;html=1;rounded=0;exitX=1;exitY=0.5;exitDx=0;exitDy=0;edgeStyle=orthogonalEdgeStyle;elbow=vertical;strokeColor=#4C801A;strokeWidth=2;fontFamily=Times New Roman;entryX=0.25;entryY=1;entryDx=0;entryDy=0;" edge="1" parent="1" source="gBbXwUMIxRK3NuY3_ltT-50" target="PI-kocEEDLTnwSgOIh5O-112">
          <mxGeometry width="50" height="50" relative="1" as="geometry">
            <mxPoint x="1541.5" y="1529" as="sourcePoint" />
            <mxPoint x="2395" y="786" as="targetPoint" />
            <Array as="points">
              <mxPoint x="2320" y="1225" />
              <mxPoint x="2320" y="830" />
              <mxPoint x="2403" y="830" />
              <mxPoint x="2403" y="719" />
            </Array>
          </mxGeometry>
        </mxCell>
        <mxCell id="gBbXwUMIxRK3NuY3_ltT-52" value="" style="endArrow=none;html=1;rounded=0;entryX=0;entryY=0.5;entryDx=0;entryDy=0;exitX=0.5;exitY=1;exitDx=0;exitDy=0;edgeStyle=orthogonalEdgeStyle;elbow=vertical;strokeColor=#4C801A;strokeWidth=2;fontFamily=Times New Roman;" edge="1" parent="1" target="gBbXwUMIxRK3NuY3_ltT-50" source="6WqJ5rUopO2z71-LBIYI-15">
          <mxGeometry width="50" height="50" relative="1" as="geometry">
            <mxPoint x="1636" y="1221" as="sourcePoint" />
            <mxPoint x="1410.5" y="1529.8899999999999" as="targetPoint" />
            <Array as="points">
              <mxPoint x="825" y="1252" />
              <mxPoint x="1589" y="1252" />
              <mxPoint x="1589" y="1225" />
            </Array>
          </mxGeometry>
        </mxCell>
        <mxCell id="gBbXwUMIxRK3NuY3_ltT-53" value="&lt;b&gt;1&lt;/b&gt;" style="text;html=1;align=center;verticalAlign=middle;resizable=0;points=[];autosize=1;strokeColor=#4C801A;strokeWidth=2;fontFamily=Times New Roman;" vertex="1" parent="1">
          <mxGeometry x="1060" y="236" width="24" height="26" as="geometry" />
        </mxCell>
        <mxCell id="gBbXwUMIxRK3NuY3_ltT-54" value="&lt;b&gt;N&lt;/b&gt;" style="text;html=1;align=center;verticalAlign=middle;resizable=0;points=[];autosize=1;strokeColor=#4C801A;strokeWidth=2;fontFamily=Times New Roman;" vertex="1" parent="1">
          <mxGeometry x="604" y="459" width="27" height="26" as="geometry" />
        </mxCell>
        <mxCell id="gBbXwUMIxRK3NuY3_ltT-55" value="&lt;b&gt;N&lt;/b&gt;" style="text;html=1;align=center;verticalAlign=middle;resizable=0;points=[];autosize=1;strokeColor=#4C801A;strokeWidth=2;fontFamily=Times New Roman;" vertex="1" parent="1">
          <mxGeometry x="1199" y="305" width="27" height="26" as="geometry" />
        </mxCell>
        <mxCell id="gBbXwUMIxRK3NuY3_ltT-56" value="&lt;b&gt;N&lt;/b&gt;" style="text;html=1;align=center;verticalAlign=middle;resizable=0;points=[];autosize=1;strokeColor=#4C801A;strokeWidth=2;fontFamily=Times New Roman;" vertex="1" parent="1">
          <mxGeometry x="1062" y="681" width="27" height="26" as="geometry" />
        </mxCell>
        <mxCell id="gBbXwUMIxRK3NuY3_ltT-60" value="&lt;b&gt;1&lt;/b&gt;" style="text;html=1;align=center;verticalAlign=middle;resizable=0;points=[];autosize=1;strokeColor=#4C801A;strokeWidth=2;fontFamily=Times New Roman;" vertex="1" parent="1">
          <mxGeometry x="1267" y="208" width="24" height="26" as="geometry" />
        </mxCell>
        <mxCell id="gBbXwUMIxRK3NuY3_ltT-61" value="&lt;b&gt;1&lt;/b&gt;" style="text;html=1;align=center;verticalAlign=middle;resizable=0;points=[];autosize=1;strokeColor=#4C801A;strokeWidth=2;fontFamily=Times New Roman;" vertex="1" parent="1">
          <mxGeometry x="1750" y="210" width="24" height="26" as="geometry" />
        </mxCell>
        <mxCell id="gBbXwUMIxRK3NuY3_ltT-62" value="&lt;b&gt;1&lt;/b&gt;" style="text;html=1;align=center;verticalAlign=middle;resizable=0;points=[];autosize=1;strokeColor=#4C801A;strokeWidth=2;fontFamily=Times New Roman;" vertex="1" parent="1">
          <mxGeometry x="2125" y="175" width="24" height="26" as="geometry" />
        </mxCell>
        <mxCell id="gBbXwUMIxRK3NuY3_ltT-64" value="&lt;b&gt;N&lt;/b&gt;" style="text;html=1;align=center;verticalAlign=middle;resizable=0;points=[];autosize=1;strokeColor=#4C801A;strokeWidth=2;fontFamily=Times New Roman;" vertex="1" parent="1">
          <mxGeometry x="716" y="493" width="27" height="26" as="geometry" />
        </mxCell>
        <mxCell id="gBbXwUMIxRK3NuY3_ltT-65" value="&lt;b&gt;1&lt;/b&gt;" style="text;html=1;align=center;verticalAlign=middle;resizable=0;points=[];autosize=1;strokeColor=#4C801A;strokeWidth=2;fontFamily=Times New Roman;" vertex="1" parent="1">
          <mxGeometry x="1086" y="632" width="24" height="26" as="geometry" />
        </mxCell>
        <mxCell id="gBbXwUMIxRK3NuY3_ltT-66" value="&lt;b&gt;1&lt;/b&gt;" style="text;html=1;align=center;verticalAlign=middle;resizable=0;points=[];autosize=1;strokeColor=#4C801A;strokeWidth=2;fontFamily=Times New Roman;" vertex="1" parent="1">
          <mxGeometry x="1145" y="309" width="24" height="26" as="geometry" />
        </mxCell>
        <mxCell id="gBbXwUMIxRK3NuY3_ltT-67" value="&lt;b&gt;N&lt;/b&gt;" style="text;html=1;align=center;verticalAlign=middle;resizable=0;points=[];autosize=1;strokeColor=#4C801A;strokeWidth=2;fontFamily=Times New Roman;" vertex="1" parent="1">
          <mxGeometry x="462" y="876" width="27" height="26" as="geometry" />
        </mxCell>
        <mxCell id="gBbXwUMIxRK3NuY3_ltT-68" value="&lt;b&gt;1&lt;/b&gt;" style="text;html=1;align=center;verticalAlign=middle;resizable=0;points=[];autosize=1;strokeColor=#4C801A;strokeWidth=2;fontFamily=Times New Roman;" vertex="1" parent="1">
          <mxGeometry x="1198" y="775" width="24" height="26" as="geometry" />
        </mxCell>
        <mxCell id="gBbXwUMIxRK3NuY3_ltT-69" value="&lt;b&gt;N&lt;/b&gt;" style="text;html=1;align=center;verticalAlign=middle;resizable=0;points=[];autosize=1;strokeColor=#4C801A;strokeWidth=2;fontFamily=Times New Roman;" vertex="1" parent="1">
          <mxGeometry x="596" y="780" width="27" height="26" as="geometry" />
        </mxCell>
        <mxCell id="gBbXwUMIxRK3NuY3_ltT-70" value="&lt;b&gt;1&lt;/b&gt;" style="text;html=1;align=center;verticalAlign=middle;resizable=0;points=[];autosize=1;strokeColor=#4C801A;strokeWidth=2;fontFamily=Times New Roman;" vertex="1" parent="1">
          <mxGeometry x="1339.5" y="746" width="24" height="26" as="geometry" />
        </mxCell>
        <mxCell id="gBbXwUMIxRK3NuY3_ltT-71" value="&lt;b&gt;N&lt;/b&gt;" style="text;html=1;align=center;verticalAlign=middle;resizable=0;points=[];autosize=1;strokeColor=#4C801A;strokeWidth=2;fontFamily=Times New Roman;" vertex="1" parent="1">
          <mxGeometry x="1291" y="1039" width="27" height="26" as="geometry" />
        </mxCell>
        <mxCell id="gBbXwUMIxRK3NuY3_ltT-72" value="&lt;b&gt;1&lt;/b&gt;" style="text;html=1;align=center;verticalAlign=middle;resizable=0;points=[];autosize=1;strokeColor=#4C801A;strokeWidth=2;fontFamily=Times New Roman;" vertex="1" parent="1">
          <mxGeometry x="740" y="904" width="24" height="26" as="geometry" />
        </mxCell>
        <mxCell id="gBbXwUMIxRK3NuY3_ltT-74" value="&lt;b&gt;N&lt;/b&gt;" style="text;html=1;align=center;verticalAlign=middle;resizable=0;points=[];autosize=1;strokeColor=#4C801A;strokeWidth=2;fontFamily=Times New Roman;" vertex="1" parent="1">
          <mxGeometry x="1152" y="1069" width="27" height="26" as="geometry" />
        </mxCell>
        <mxCell id="gBbXwUMIxRK3NuY3_ltT-75" value="&lt;b&gt;1&lt;/b&gt;" style="text;html=1;align=center;verticalAlign=middle;resizable=0;points=[];autosize=1;strokeColor=#4C801A;strokeWidth=2;fontFamily=Times New Roman;" vertex="1" parent="1">
          <mxGeometry x="1246" y="305" width="24" height="26" as="geometry" />
        </mxCell>
        <mxCell id="gBbXwUMIxRK3NuY3_ltT-77" value="&lt;b&gt;N&lt;/b&gt;" style="text;html=1;align=center;verticalAlign=middle;resizable=0;points=[];autosize=1;strokeColor=#4C801A;strokeWidth=2;fontFamily=Times New Roman;" vertex="1" parent="1">
          <mxGeometry x="1727" y="924" width="27" height="26" as="geometry" />
        </mxCell>
        <mxCell id="gBbXwUMIxRK3NuY3_ltT-78" value="&lt;b&gt;1&lt;/b&gt;" style="text;html=1;align=center;verticalAlign=middle;resizable=0;points=[];autosize=1;strokeColor=#4C801A;strokeWidth=2;fontFamily=Times New Roman;" vertex="1" parent="1">
          <mxGeometry x="767" y="1177" width="24" height="26" as="geometry" />
        </mxCell>
        <mxCell id="gBbXwUMIxRK3NuY3_ltT-79" value="&lt;b&gt;1&lt;/b&gt;" style="text;html=1;align=center;verticalAlign=middle;resizable=0;points=[];autosize=1;strokeColor=#4C801A;strokeWidth=2;fontFamily=Times New Roman;" vertex="1" parent="1">
          <mxGeometry x="492" y="494" width="24" height="26" as="geometry" />
        </mxCell>
        <mxCell id="gBbXwUMIxRK3NuY3_ltT-80" value="&lt;b&gt;1&lt;/b&gt;" style="text;html=1;align=center;verticalAlign=middle;resizable=0;points=[];autosize=1;strokeColor=#4C801A;strokeWidth=2;fontFamily=Times New Roman;" vertex="1" parent="1">
          <mxGeometry x="1078" y="728" width="24" height="26" as="geometry" />
        </mxCell>
        <mxCell id="gBbXwUMIxRK3NuY3_ltT-84" value="&lt;b&gt;N&lt;/b&gt;" style="text;html=1;align=center;verticalAlign=middle;resizable=0;points=[];autosize=1;strokeColor=#4C801A;strokeWidth=2;fontFamily=Times New Roman;" vertex="1" parent="1">
          <mxGeometry x="824" y="1003" width="27" height="26" as="geometry" />
        </mxCell>
        <mxCell id="gBbXwUMIxRK3NuY3_ltT-85" value="&lt;b&gt;1&lt;/b&gt;" style="text;html=1;align=center;verticalAlign=middle;resizable=0;points=[];autosize=1;strokeColor=#4C801A;strokeWidth=2;fontFamily=Times New Roman;" vertex="1" parent="1">
          <mxGeometry x="812" y="859" width="24" height="26" as="geometry" />
        </mxCell>
        <mxCell id="gBbXwUMIxRK3NuY3_ltT-86" value="&lt;b&gt;N&lt;/b&gt;" style="text;html=1;align=center;verticalAlign=middle;resizable=0;points=[];autosize=1;strokeColor=#4C801A;strokeWidth=2;fontFamily=Times New Roman;" vertex="1" parent="1">
          <mxGeometry x="1653" y="952" width="27" height="26" as="geometry" />
        </mxCell>
        <mxCell id="gBbXwUMIxRK3NuY3_ltT-87" value="&lt;b&gt;N&lt;/b&gt;" style="text;html=1;align=center;verticalAlign=middle;resizable=0;points=[];autosize=1;strokeColor=#4C801A;strokeWidth=2;fontFamily=Times New Roman;" vertex="1" parent="1">
          <mxGeometry x="1780" y="929" width="27" height="26" as="geometry" />
        </mxCell>
        <mxCell id="gBbXwUMIxRK3NuY3_ltT-88" value="&lt;b&gt;1&lt;/b&gt;" style="text;html=1;align=center;verticalAlign=middle;resizable=0;points=[];autosize=1;strokeColor=#4C801A;strokeWidth=2;fontFamily=Times New Roman;" vertex="1" parent="1">
          <mxGeometry x="2288" y="641" width="24" height="26" as="geometry" />
        </mxCell>
        <mxCell id="gBbXwUMIxRK3NuY3_ltT-89" value="&lt;b&gt;1&lt;/b&gt;" style="text;html=1;align=center;verticalAlign=middle;resizable=0;points=[];autosize=1;strokeColor=#4C801A;strokeWidth=2;fontFamily=Times New Roman;" vertex="1" parent="1">
          <mxGeometry x="2007" y="934" width="24" height="26" as="geometry" />
        </mxCell>
        <mxCell id="gBbXwUMIxRK3NuY3_ltT-90" value="&lt;b&gt;1&lt;/b&gt;" style="text;html=1;align=center;verticalAlign=middle;resizable=0;points=[];autosize=1;strokeColor=#4C801A;strokeWidth=2;fontFamily=Times New Roman;" vertex="1" parent="1">
          <mxGeometry x="2159" y="723" width="24" height="26" as="geometry" />
        </mxCell>
        <mxCell id="gBbXwUMIxRK3NuY3_ltT-91" value="&lt;b&gt;N&lt;/b&gt;" style="text;html=1;align=center;verticalAlign=middle;resizable=0;points=[];autosize=1;strokeColor=#4C801A;strokeWidth=2;fontFamily=Times New Roman;" vertex="1" parent="1">
          <mxGeometry x="2251" y="157" width="27" height="26" as="geometry" />
        </mxCell>
        <mxCell id="gBbXwUMIxRK3NuY3_ltT-93" value="" style="endArrow=none;html=1;rounded=0;entryX=0;entryY=0.5;entryDx=0;entryDy=0;exitX=0;exitY=0.5;exitDx=0;exitDy=0;edgeStyle=elbowEdgeStyle;elbow=vertical;strokeColor=#4C801A;strokeWidth=2;fontFamily=Times New Roman;" edge="1" parent="1" source="6WqJ5rUopO2z71-LBIYI-44" target="gBbXwUMIxRK3NuY3_ltT-63">
          <mxGeometry width="50" height="50" relative="1" as="geometry">
            <mxPoint x="1919" y="240" as="sourcePoint" />
            <mxPoint x="2031" y="244" as="targetPoint" />
          </mxGeometry>
        </mxCell>
        <mxCell id="gBbXwUMIxRK3NuY3_ltT-63" value="&lt;b&gt;N&lt;/b&gt;" style="text;html=1;align=center;verticalAlign=middle;resizable=0;points=[];autosize=1;strokeColor=#4C801A;strokeWidth=2;fontFamily=Times New Roman;" vertex="1" parent="1">
          <mxGeometry x="1920" y="217" width="27" height="26" as="geometry" />
        </mxCell>
        <mxCell id="gBbXwUMIxRK3NuY3_ltT-94" value="&lt;b&gt;1&lt;/b&gt;" style="text;html=1;align=center;verticalAlign=middle;resizable=0;points=[];autosize=1;strokeColor=#4C801A;strokeWidth=2;fontFamily=Times New Roman;" vertex="1" parent="1">
          <mxGeometry x="2033" y="684" width="24" height="26" as="geometry" />
        </mxCell>
        <mxCell id="gBbXwUMIxRK3NuY3_ltT-95" value="&lt;b&gt;1&lt;/b&gt;" style="text;html=1;align=center;verticalAlign=middle;resizable=0;points=[];autosize=1;strokeColor=#4C801A;strokeWidth=2;fontFamily=Times New Roman;" vertex="1" parent="1">
          <mxGeometry x="1413" y="720" width="24" height="26" as="geometry" />
        </mxCell>
        <mxCell id="gBbXwUMIxRK3NuY3_ltT-96" value="&lt;b&gt;1&lt;/b&gt;" style="text;html=1;align=center;verticalAlign=middle;resizable=0;points=[];autosize=1;strokeColor=#4C801A;strokeWidth=2;fontFamily=Times New Roman;" vertex="1" parent="1">
          <mxGeometry x="2337" y="471" width="24" height="26" as="geometry" />
        </mxCell>
        <mxCell id="gBbXwUMIxRK3NuY3_ltT-97" value="&lt;b&gt;N&lt;/b&gt;" style="text;html=1;align=center;verticalAlign=middle;resizable=0;points=[];autosize=1;strokeColor=#4C801A;strokeWidth=2;fontFamily=Times New Roman;" vertex="1" parent="1">
          <mxGeometry x="844" y="1179" width="27" height="26" as="geometry" />
        </mxCell>
        <mxCell id="gBbXwUMIxRK3NuY3_ltT-98" value="&lt;b&gt;1&lt;/b&gt;" style="text;html=1;align=center;verticalAlign=middle;resizable=0;points=[];autosize=1;strokeColor=#4C801A;strokeWidth=2;fontFamily=Times New Roman;" vertex="1" parent="1">
          <mxGeometry x="474" y="784" width="24" height="26" as="geometry" />
        </mxCell>
        <mxCell id="gBbXwUMIxRK3NuY3_ltT-99" value="&lt;b&gt;1&lt;/b&gt;" style="text;html=1;align=center;verticalAlign=middle;resizable=0;points=[];autosize=1;strokeColor=#4C801A;strokeWidth=2;fontFamily=Times New Roman;" vertex="1" parent="1">
          <mxGeometry x="738" y="1109" width="24" height="26" as="geometry" />
        </mxCell>
        <mxCell id="gBbXwUMIxRK3NuY3_ltT-100" value="&lt;b&gt;N&lt;/b&gt;" style="text;html=1;align=center;verticalAlign=middle;resizable=0;points=[];autosize=1;strokeColor=#4C801A;strokeWidth=2;fontFamily=Times New Roman;" vertex="1" parent="1">
          <mxGeometry x="764" y="816" width="27" height="26" as="geometry" />
        </mxCell>
        <mxCell id="gBbXwUMIxRK3NuY3_ltT-101" value="&lt;b&gt;1&lt;/b&gt;" style="text;html=1;align=center;verticalAlign=middle;resizable=0;points=[];autosize=1;strokeColor=#4C801A;strokeWidth=2;fontFamily=Times New Roman;" vertex="1" parent="1">
          <mxGeometry x="2440" y="746" width="24" height="26" as="geometry" />
        </mxCell>
        <mxCell id="gBbXwUMIxRK3NuY3_ltT-102" value="&lt;b&gt;N&lt;/b&gt;" style="text;html=1;align=center;verticalAlign=middle;resizable=0;points=[];autosize=1;strokeColor=#4C801A;strokeWidth=2;fontFamily=Times New Roman;" vertex="1" parent="1">
          <mxGeometry x="1228.5" y="1043" width="27" height="26" as="geometry" />
        </mxCell>
        <mxCell id="gBbXwUMIxRK3NuY3_ltT-103" value="&lt;b&gt;N&lt;/b&gt;" style="text;html=1;align=center;verticalAlign=middle;resizable=0;points=[];autosize=1;strokeColor=#4C801A;strokeWidth=2;fontFamily=Times New Roman;" vertex="1" parent="1">
          <mxGeometry x="1618" y="1025" width="27" height="26" as="geometry" />
        </mxCell>
        <mxCell id="gBbXwUMIxRK3NuY3_ltT-104" value="&lt;b&gt;1&lt;/b&gt;" style="text;html=1;align=center;verticalAlign=middle;resizable=0;points=[];autosize=1;strokeColor=#4C801A;strokeWidth=2;fontFamily=Times New Roman;" vertex="1" parent="1">
          <mxGeometry x="2333" y="726" width="24" height="26" as="geometry" />
        </mxCell>
        <mxCell id="gBbXwUMIxRK3NuY3_ltT-105" value="&lt;b&gt;N&lt;/b&gt;" style="text;html=1;align=center;verticalAlign=middle;resizable=0;points=[];autosize=1;strokeColor=#4C801A;strokeWidth=2;fontFamily=Times New Roman;" vertex="1" parent="1">
          <mxGeometry x="749" y="549" width="27" height="26" as="geometry" />
        </mxCell>
        <mxCell id="gBbXwUMIxRK3NuY3_ltT-145" value="&lt;b&gt;IsA&lt;/b&gt;" style="rhombus;whiteSpace=wrap;html=1;strokeColor=#4C801A;strokeWidth=2;fontFamily=Times New Roman;" vertex="1" parent="1">
          <mxGeometry x="2069" y="501" width="80" height="80" as="geometry" />
        </mxCell>
        <mxCell id="gBbXwUMIxRK3NuY3_ltT-146" value="&lt;b&gt;1&lt;/b&gt;" style="text;html=1;align=center;verticalAlign=middle;resizable=0;points=[];autosize=1;strokeColor=#4C801A;strokeWidth=2;fontFamily=Times New Roman;" vertex="1" parent="1">
          <mxGeometry x="2191" y="513" width="24" height="26" as="geometry" />
        </mxCell>
      </root>
    </mxGraphModel>
  </diagram>
</mxfile>
